<?xml version="1.0" encoding="utf-8"?>
<!-- Generator: Adobe Illustrator 16.0.4, SVG Export Plug-In . SVG Version: 6.00 Build 0)  -->
<!DOCTYPE svg PUBLIC "-//W3C//DTD SVG 1.1//EN" "http://www.w3.org/Graphics/SVG/1.1/DTD/svg11.dtd">
<svg version="1.1" id="Layer_1" xmlns="http://www.w3.org/2000/svg" xmlns:xlink="http://www.w3.org/1999/xlink" x="0px" y="0px"
	 width="316px" height="338px" viewBox="0 0 316 338" enable-background="new 0 0 316 338" xml:space="preserve">
<rect x="-1.033" fill="#979797" width="319.36" height="340.834"/>
<g>
	<path fill="#FFFFFF" d="M57.393,154.619c-2.959-2.899-8.214-4.529-12.169-4.529c-3.875,0-7.619,1.307-10.638,4.789
		c-1.509,1.773-5.133,6.242-5.133,17.351c0,4.138,0.544,10.771,3.624,15.501c3.08,4.8,7.95,6.904,12.681,6.904
		c4.669,0,8.997-1.833,12.681-4.339v2.044c-2.758,1.569-7.287,4.196-14.262,4.196c-13.859,0-22.082-10.698-22.082-24.245
		c0-12.219,6.976-24.053,23.128-24.053c2.305,0,4.61,0.202,7.105,0.533c2.688,0.391,3.815,0.452,6.704,0.391
		c-0.071,2.698-0.071,3.614-0.071,5.062c0,1.509,0,2.758,0.071,4.267h-1.379L57.393,154.619z"/>
	<path fill="#FFFFFF" d="M75.739,170.127c5.123-5.917,10.719-6.312,12.351-6.312c1.307,0,2.697,0.202,3.945,0.726
		c3.482,1.308,5.133,3.804,5.716,7.285c0.262,1.319,0.262,2.033,0.262,8.736c0,4.541,0.131,9.011,0.463,13.416l4.066,0.396v1.246
		c-1.43-0.061-2.295-0.13-3.864-0.13c-2.235,0-4.54,0.13-6.784,0.13c0.342-5.062,0.403-10.245,0.403-13.928
		c0-4.801,0-8.616-1.772-11.374c-1.378-2.094-3.743-3.421-6.24-3.421c-2.637,0-6.18,1.509-7.749,5.001
		c-0.726,1.581-0.796,2.759-0.796,5.062c0,12.421,0.192,14.323,0.393,17.019c1.902,0.133,2.828,0.263,4.349,0.396v1.246
		c-2.245-0.061-5.396-0.13-6.785-0.13c-2.818,0-5.706,0.13-8.535,0.13v-1.246c1.439-0.133,2.497-0.263,4.207-0.335
		c0.322-3.351,0.523-5.644,0.595-12.75c0.05-3.482,0.05-8.676,0.05-12.944c0-9.923-0.121-13.727-0.705-20.562
		c-1.65-0.13-2.707-0.202-4.347-0.391v-1.247c2.174,0.06,3.683,0.118,6.37,0.118c1.581,0,2.89,0,4.861-0.118
		c-0.201,3.683-0.261,6.3-0.322,10.708L75.739,170.127z"/>
	<path fill="#FFFFFF" d="M129.978,173.076c-0.081-1.107-0.142-1.439-0.272-2.627c-0.855-0.655-1.509-1.248-3.483-1.248
		c-4.468,0-6.511,3.613-7.296,5.323l-0.654,1.38c0,3.291,0.07,13.669,0.322,18.074l4.016,0.396v1.246
		c-2.757-0.061-3.885-0.13-6.502-0.13c-2.495,0-4.408,0.069-8.031,0.13v-1.246l4.147-0.465c0.261-3.351,0.261-4.67,0.261-16.758
		c0-1.438,0-5.846-0.12-10.839l-4.288-0.523v-1.248c1.721,0.061,2.495,0.131,6.059,0.131c2.365,0,3.281-0.07,4.73-0.131
		c-0.14,2.034-0.271,3.341-0.462,7.548c1.71-2.355,5.778-8.333,12.742-8.011v8.998H129.978z"/>
	<path fill="#FFFFFF" d="M150.148,195.62c-2.758-0.061-4.59-0.13-8.606-0.13c-2.828,0-4.659,0.069-6.501,0.13v-1.246
		c2.104-0.202,2.104-0.202,4.53-0.335c0.332-5.324,0.332-15.437,0.332-18.789c0-4.327-0.13-6.441-0.202-8.938
		c-2.093-0.261-2.294-0.321-4.136-0.523v-1.248c1.64,0.131,2.959,0.131,5.385,0.131c2.838,0,3.421,0,5.193-0.131
		c-0.262,4.268-0.464,6.703-0.464,12.419c0,2.438,0,12.351,0.142,17.019c2.033,0.133,2.426,0.193,4.328,0.396V195.62z
		 M142.791,155.865c-1.45,0-3.09-1.117-3.09-3.421c0-2.295,1.449-3.875,3.362-3.875c1.973,0,3.14,1.71,3.019,3.673
		C145.951,154.356,144.571,155.865,142.791,155.865z"/>
	<path fill="#FFFFFF" d="M157.655,188.133c0.263,2.616,0.263,2.958,0.453,3.934c1.117,1.189,2.496,2.698,6.109,2.698
		c3.612,0,7.749-2.044,7.749-6.894c0-2.436-1.428-3.683-1.831-4.005c-1.046-0.866-1.439-0.928-5.193-2.114
		c-1.831-0.523-8.012-2.427-8.012-8.797c0-2.758,1.379-5.395,3.482-6.964c1.973-1.45,4.992-2.175,8.414-2.175
		c2.688,0,5.133,0.395,7.679,1.048c-0.191,4.276-0.13,4.67-0.13,6.643h-1.309c-0.131-1.188-0.131-1.45-0.463-3.947
		c-0.785-0.724-2.365-2.235-5.454-2.235c-0.786,0-6.302,0-6.302,5.86c0,4.327,2.959,5.373,6.302,6.502
		c4.146,1.308,8.615,2.816,8.615,8.734c0,4.138-2.235,6.3-3.886,7.488c-2.495,1.772-5.313,2.437-9.863,2.437
		c-2.758,0-4.529-0.334-7.952-1.129c0.141-2.295,0.141-2.747,0.141-7.084H157.655z"/>
	<path fill="#FFFFFF" d="M194.462,166.171c-0.07,3.754-0.201,14.533-0.201,16.244c0,5.646,0,11.826,6.25,11.826
		c1.106,0,1.771-0.263,2.698-0.533v1.328c-1.27,0.454-2.959,0.976-5.525,0.976c-9.271,0-9.271-6.047-9.271-9.721
		c0-6.704,0.201-13.407,0.201-20.12h-5.395v-1.63h5.395c-0.131-4.408-0.131-5.073-0.402-7.296l5.918-3.554h0.925
		c-0.462,6.834-0.462,7.628-0.593,10.85h8.344v1.63H194.462z"/>
	<path fill="#FFFFFF" d="M222.582,195.62c-2.768-0.061-4.599-0.13-8.605-0.13c-2.837,0-4.67,0.069-6.5,0.13v-1.246
		c2.093-0.202,2.093-0.202,4.527-0.335c0.322-5.324,0.322-15.437,0.322-18.789c0-4.327-0.132-6.441-0.201-8.938
		c-2.094-0.261-2.295-0.321-4.126-0.523v-1.248c1.63,0.131,2.949,0.131,5.385,0.131c2.827,0,3.412,0,5.183-0.131
		c-0.263,4.268-0.452,6.703-0.452,12.419c0,2.438,0,12.351,0.13,17.019c2.032,0.133,2.436,0.193,4.338,0.396V195.62z
		 M215.225,155.865c-1.448,0-3.1-1.117-3.1-3.421c0-2.295,1.449-3.875,3.362-3.875c1.962,0,3.15,1.71,3.02,3.673
		C218.365,154.356,216.996,155.865,215.225,155.865z"/>
	<path fill="#FFFFFF" d="M234.549,164.672c4.729-0.594,7.166-0.594,7.892-0.594c1.509,0,4.981,0.061,7.607,2.234
		c2.961,2.365,3.362,5.979,3.483,8.011c0.201,2.306,0.343,16.365,0.402,19.525c2.033,0.19,2.295,0.263,4.327,0.525v1.246
		c-1.771,0-3.542-0.061-5.312-0.061c-1.771,0-3.544,0.061-5.325,0.061l0.201-2.759c-2.769,1.903-5.193,3.484-9.461,3.484
		c-2.163,0-3.684-0.334-4.861-0.927c-3.623-1.771-4.469-5.515-4.469-8.333c0-7.568,6.241-10.648,11.756-10.648
		c3.02,0,5.455,0.846,7.166,1.369c-0.262-4.327-0.332-5.646-1.127-7.609c-1.449-3.623-4.327-4.812-6.362-4.812
		c-0.522,0-2.766,0.072-4.347,1.773c-0.121,1.518-0.121,1.851-0.261,3.038h-1.31V164.672z M248.016,183.785
		c0-2.093-0.061-2.88-0.121-4.388c-0.795-0.403-2.637-1.391-5.727-1.391c-5.062,0-7.035,3.686-7.035,7.952
		c0,4.409,1.52,8.282,5.717,8.282c0.986,0,4.146-0.393,7.105-3.743C248.016,187.267,248.016,185.104,248.016,183.785z"/>
	<path fill="#FFFFFF" d="M274.304,169.733c1.853-1.779,6.06-5.918,12.36-5.918c9.602,0,9.602,9.523,9.602,12.742l-0.061,6.643
		c0,6.704,0.12,8.736,0.321,10.839c1.511,0.072,2.234,0.133,4.207,0.335v1.246c-1.912,0-3.804-0.13-5.646-0.13
		c-1.117,0-1.581,0.069-5.203,0.13c0.2-3.15,0.463-7.559,0.463-13.013c0-2.366-0.061-7.69-0.665-9.994
		c-1.177-4.47-4.59-5.716-7.286-5.716c-4.207,0-6.703,3.099-7.417,4.478c-0.595,1.117-1.057,2.165-1.057,9.721
		c0,7.501,0.261,10.115,0.522,12.813l4.085,0.465v1.246c-2.696-0.061-4.227-0.13-7.306-0.13c-2.234,0-4.852,0.069-7.749,0.13v-1.246
		c2.032-0.335,2.556-0.396,4.396-0.525c0.333-5.856,0.534-9.4,0.534-15.318c0-6.502-0.131-9.329-0.332-12.359l-4.539-0.382v-1.248
		c1.65,0.061,2.959,0.131,4.67,0.131c2.174,0,4.73-0.131,6.381-0.131L274.304,169.733z"/>
	<path fill="#FFFFFF" d="M44.126,232.91l1.37,0.069c7.699,0.785,12.097,4.008,12.097,11.365c0,7.757-5.847,12.88-16.092,12.88
		c-2.114,0-3.815-0.13-7.177-0.198c-7.346-0.133-8.665-0.133-10.508,0v-1.512c2.114-0.19,2.295-0.19,4.6-0.331
		c0.131-1.964,0.272-3.675,0.393-7.75c0.061-4.73,0.061-19.978,0.061-20.432c0-8.677-0.121-10.969-0.322-14.332
		c-2.295-0.263-2.698-0.322-4.792-0.523v-1.51c4.006,0.201,7.227,0.263,13.205,0c1.973-0.141,3.945-0.202,5.848-0.202
		c2.043,0,6.37,0.062,9.33,2.627c1.71,1.451,3.421,4.279,3.421,8.354c0,8.014-7.105,10.317-9.994,11.104L44.126,232.91z
		 M34.988,226.469c0,2.436,0.061,3.613,0.061,5.918c0.986,0.07,1.449,0.07,2.245,0.07c2.365,0,4.861-0.261,6.894-1.51
		c1.309-0.724,4.67-3.231,4.67-9.139c0-3.089-1.046-5.323-2.174-6.703c-1.912-2.363-4.268-2.959-7.166-2.959
		c-1.702,0-2.95,0.201-4.138,0.463C35.049,217.199,34.988,221.87,34.988,226.469z M35.38,255.252
		c1.258,0.192,2.305,0.334,3.956,0.334c3.14,0,6.704-0.464,9.118-3.814c1.51-2.103,2.245-5.184,2.245-7.821
		c0-8.604-6.904-10.053-12.158-10.053c-1.178,0-2.044,0.069-3.422,0.13C34.988,240.146,35.119,250.452,35.38,255.252z"/>
	<path fill="#FFFFFF" d="M86.057,257.026c-2.779-0.062-7.76-0.062-12.3-0.062c-1.831,0-2.234,0-4.388,0.062v-1.582
		c1.893-0.12,2.758-0.192,4.711-0.261c0.271-2.617,0.473-3.864,0.543-9.523c0.06-5.978,0.06-10.979,0.06-15.509
		c0-12.227-0.06-13.738-0.26-17.481l-4.872-0.523v-1.51c2.436,0.061,5.727,0.13,11.775,0c1.569,0,5.254-0.202,7.085-0.202
		c3.221,0,7.226,0.263,9.722,2.105c1.651,1.178,3.685,3.753,3.685,8.021c0,0.725,0,3.343-1.369,5.978
		c-2.315,4.209-6.441,6.242-11.645,7.167c0.855,0.785,1.249,1.177,2.305,2.436c1.389,1.702,8.011,10.306,9.531,12.218
		c2.888,3.743,4.268,5.256,5.716,6.825c1.641,0.141,1.711,0.201,3.412,0.261v1.582c-2.426-0.062-3.683-0.062-6.633-0.062
		c-2.043,0-2.626,0-4.207,0.062c-1.902-2.891-4.336-6.836-8.604-12.089c-2.637-3.282-5.395-6.44-7.891-9.793l-0.987-1.318
		l-0.714-0.121c0,1.642,0.13,9.724,0.191,11.495c0.06,3.803,0.202,5.917,0.523,9.983c1.832,0.068,2.235,0.141,4.61,0.261V257.026z
		 M80.732,232.387c1.962,0.07,3.351,0.07,4.861-0.07c4.931-0.524,9.39-3.149,9.39-10.378c0-9.47-6.229-9.732-9.128-9.732
		c-1.832,0-3.161,0.201-4.348,0.334C80.862,219.111,80.732,228.573,80.732,232.387z"/>
	<path fill="#FFFFFF" d="M139.691,240.339c-0.272-3.876-0.272-4.279-1.521-4.742c-3.271-1.247-8.334-1.308-10.246-1.308v4.538
		c0,5.385,0,10.901,0.403,16.165c4.921,0.13,12.942-0.333,16.092-1.701c1.379-0.665,1.379-0.665,1.641-5.264h1.57
		c-0.121,2.163-0.121,2.816-0.121,8.999c-4.208-0.193-5.717-0.193-19.123-0.193c-4.207,0-8.344,0.061-12.481,0.193v-1.582
		c2.225-0.12,2.819-0.12,5.183-0.192c0.333-3.21,0.394-5.122,0.454-9.531c0.081-3.934,0.081-8.071,0.141-11.101v-3.934
		c0-11.837-0.262-15.117-0.463-18.077l-4.528-0.403v-1.569c2.556,0.13,4.528,0.201,9.33,0.201c4.74,0,16.425,0,20.44-0.201
		c-0.069,1.368-0.069,4.791-0.069,7.951h-1.45c-0.07-3.019-0.393-3.684-1.58-4.268c-2.235-1.188-7.75-1.913-12.077-1.913
		c-1.249,0-2.113,0.062-2.958,0.133c-0.141,2.627-0.141,4.015-0.202,8.221l-0.202,12.02c2.295,0,7.367,0.061,10.246-0.846
		c1.389-0.403,1.389-0.465,1.651-4.551h1.51c-0.131,2.175-0.202,3.885-0.202,7.035c0,1.581,0.071,3.755,0.071,5.848L139.691,240.339
		z"/>
	<path fill="#FFFFFF" d="M154.736,218.588c0.061-3.16,0.131-6.048,0.202-8.092c6.04,0.201,12.087,0.533,18.137,0.533
		c2.816-0.07,7.81-0.191,17.28-0.533c0,1.188-0.07,6.784-0.07,8.092h-1.45c-0.061-1.51-0.12-2.175-0.381-4.268
		c-2.769-1.188-4.469-1.578-12.36-1.973c-0.262,3.804-0.393,5.517-0.523,11.362c-0.141,6.18-0.141,10.842-0.141,21.096
		c0,5.517,0.071,7.429,0.202,10.378c2.374,0.068,2.555,0.141,4.87,0.261v1.582c-2.697-0.133-3.824-0.133-7.699-0.133
		c-4.257,0-6.431,0-9.189,0.133v-1.582c2.034-0.12,2.819-0.12,4.933-0.192c0.715-11.161,0.715-23.317,0.715-35.023
		c0-3.211-0.071-5.062-0.191-7.821c-5.859,0.133-9.723,0.787-12.49,2.045c-0.272,1.639-0.333,2.223-0.464,4.136H154.736z"/>
	<path fill="#FFFFFF" d="M219.544,209.652c15.71,0,22.212,12.016,22.412,23.79c0.191,12.743-6.773,24.508-23.127,24.508
		c-15.38,0-22.747-11.302-22.747-24.186C196.082,217.663,206.529,209.652,219.544,209.652z M234.206,226.076
		c-0.341-2.366-0.925-4.661-1.972-6.764c-2.697-5.324-7.829-8.151-13.214-8.151c-5.647,0-10.188,3.089-12.551,6.964
		c-2.497,4.006-3.221,9.724-3.221,15.842c0,4.53,0.401,10.839,3.42,15.569c1.692,2.627,5.396,6.773,12.279,6.773
		c5.656,0,9.994-2.756,12.491-6.701c2.827-4.47,3.412-10.911,3.352-16.166C234.73,230.947,234.589,228.513,234.206,226.076z"/>
	<path fill="#FFFFFF" d="M285.275,210.637c1.912,0.061,2.566,0.061,8.474,0.061c2.315,0,3.423,0,4.872-0.061v1.569l-4.409,0.263
		c-0.382,2.496-0.584,4.206-0.916,8.614c-0.261,3.423-0.855,10.852-0.855,24.117c0,3.873,0.061,6.963,0.142,11.826h-3.885
		c-0.927-1.38-5.516-8.023-6.562-9.531c-0.081-0.062-18.861-25.947-22.425-30.478c-0.06,12.803,0.071,27.194,0.926,38.104
		l4.47,0.322v1.582c-1.51-0.062-3.684-0.193-6.24-0.193c-2.294,0-3.944,0.061-7.035,0.193v-1.582l4.338-0.192
		c1.318-10.709,1.641-21.547,1.641-32.396c0-4.73-0.131-7.548-0.263-10.387l-4.669-0.263v-1.569c2.104,0,4.217,0.061,6.312,0.061
		c0.724,0,1.911,0,3.683-0.061c2.557,3.815,20.492,28.646,27.668,37.259c0.07-3.159,0.131-4.6,0.131-7.035
		c0-9.459,0-18.922-0.987-28.392l-4.407-0.263V210.637z"/>
	<path fill="#FFFFFF" d="M119.864,275.726h3.401c2.929,0,5.596,0.844,5.596,4.055c0,3.142-2.285,4.278-5.172,4.278h-1.138v5.092
		h-2.687V275.726z M122.55,281.934h0.946c1.349,0,2.557-0.443,2.557-1.992c0-1.558-1.168-2.094-2.557-2.094h-0.946V281.934z"/>
	<path fill="#FFFFFF" d="M141.291,275.726h3.039l5.273,13.425h-2.979l-1.158-3.078h-5.445l-1.167,3.078h-2.799L141.291,275.726z
		 M142.78,278.412h-0.051l-1.942,5.546h3.925L142.78,278.412z"/>
	<path fill="#FFFFFF" d="M159.186,275.726h2.909c2.889,0,6.331-0.092,6.331,3.634c0,1.578-1.067,2.888-2.778,3.119v0.04
		c0.745,0.061,1.147,0.786,1.429,1.389l2.144,5.243h-2.989l-1.61-4.195c-0.402-0.997-0.744-1.38-1.871-1.38h-0.866v5.575h-2.697
		V275.726z M161.883,281.451h0.886c1.319,0,2.838-0.18,2.838-1.861c0-1.609-1.499-1.742-2.838-1.742h-0.886V281.451z"/>
	<path fill="#FFFFFF" d="M179.033,275.726h2.677v13.425h-2.677V275.726z"/>
	<path fill="#FFFFFF" d="M199.886,278.19c-0.843-0.362-1.78-0.584-2.728-0.584c-0.926,0-2.113,0.402-2.113,1.871
		c0,2.326,5.878,1.351,5.878,5.839c0,2.949-2.324,4.066-5.031,4.066c-1.46,0-2.124-0.201-3.442-0.523l0.252-2.416
		c0.926,0.504,1.973,0.826,3.039,0.826c1.017,0,2.376-0.524,2.376-1.73c0-2.558-5.878-1.512-5.878-5.949
		c0-2.989,2.325-4.097,4.689-4.097c1.168,0,2.233,0.161,3.222,0.483L199.886,278.19z"/>
</g>
</svg>
