<?xml version="1.0" encoding="utf-8"?>
<!-- Generator: Adobe Illustrator 16.0.4, SVG Export Plug-In . SVG Version: 6.00 Build 0)  -->
<!DOCTYPE svg PUBLIC "-//W3C//DTD SVG 1.1//EN" "http://www.w3.org/Graphics/SVG/1.1/DTD/svg11.dtd">
<svg version="1.1" id="contact-svg" xmlns="http://www.w3.org/2000/svg" xmlns:xlink="http://www.w3.org/1999/xlink" x="0px"
	 y="0px" width="772.18px" height="169.492px" viewBox="0 0 772.18 169.492" enable-background="new 0 0 772.18 169.492"
	 xml:space="preserve">
<g>
	<polygon fill="#D03147" points="507.9,26.822 493.658,72.16 510.126,59.76 	"/>
	<polygon fill="#F27270" points="507.9,26.822 533.767,76.035 510.126,59.76 	"/>
	<polygon fill="#F1E7D3" points="507.9,26.822 541.71,47.166 533.767,76.035 	"/>
	<polygon fill="#84BFB9" points="539.691,54.504 554.886,131.837 533.767,76.035 	"/>
	<polygon fill="#0C9696" points="533.767,76.035 554.886,131.837 541.71,146.949 	"/>
	<polygon fill="#046370" points="533.767,76.035 517.105,131.837 541.71,146.949 	"/>
	<polygon fill="#F27270" points="493.658,72.16 485.328,43.871 507.9,26.822 	"/>
	<polygon fill="#6D0F25" points="485.328,43.871 453.744,130.287 493.658,72.16 	"/>
	<polygon fill="#046370" points="453.744,130.287 470.408,143.85 495.015,130.287 471.787,104.014 	"/>
	<polygon fill="#0C9696" points="495.015,130.287 493.658,72.16 471.787,104.014 	"/>
	<path fill="none" stroke="#FFFFFF" stroke-width="0.2283" stroke-linecap="round" stroke-miterlimit="10" d="M517.105,116.917"/>
	<polygon fill="#F1E7D3" points="504.414,93.171 493.968,85.48 532.841,82.768 516.183,91.052 	"/>
	<polygon fill="#997F6A" points="504.414,93.171 493.968,85.48 493.968,94.636 494.402,104.014 	"/>
	<polygon fill="#D8CBB8" points="494.402,104.014 504.414,93.171 516.183,91.052 526.998,98.705 	"/>
	<polygon fill="#997F6A" points="516.183,91.052 532.841,82.768 526.998,98.705 526.998,98.705 	"/>
	<polygon fill="#0B333A" points="493.658,72.16 490.753,83.396 487.845,94.636 494.402,104.014 493.968,85.48 493.814,78.82 	"/>
	<polygon fill="#0B333A" points="487.845,94.636 495.015,130.287 494.402,104.014 	"/>
	<polygon fill="#0D171F" points="533.767,76.035 532.841,82.768 531.734,82.845 	"/>
	<polygon fill="#0B333A" points="533.767,92.066 525.435,111.953 517.105,131.837 527.208,98.134 532.841,82.768 533.304,87.417 	
		"/>
	<polygon fill="#D8CBB8" points="539.691,54.504 507.9,26.822 541.71,47.166 	"/>
	<polygon fill="#0C9696" points="541.71,47.166 554.886,131.837 539.691,54.504 	"/>
	<polygon fill="#05363D" points="495.015,130.287 466.479,133.436 470.408,143.85 	"/>
	<polygon fill="#046370" points="466.479,133.436 453.744,130.287 470.408,143.85 	"/>
	<polygon fill="#05363D" points="517.105,131.837 540.458,135.766 541.71,146.949 	"/>
	<polygon fill="#046370" points="540.458,135.766 554.886,131.837 541.71,146.949 	"/>
	<polyline fill="none" stroke="#FFFFFF" stroke-width="0.2283" stroke-linecap="round" stroke-miterlimit="10" points="
		475.958,69.506 480.89,90.755 487.845,94.636 494.476,105.438 	"/>
	<polyline fill="none" stroke="#FFFFFF" stroke-width="0.2283" stroke-linecap="round" stroke-miterlimit="10" points="
		524.498,107.078 525.222,112.46 538.408,117.455 547.289,111.764 549.654,105.212 549.812,99.234 	"/>
	<polygon fill="#F27270" points="304.627,47.379 298.105,86.309 275.838,51.77 	"/>
	<polygon fill="#D03147" points="324.876,25.178 298.105,86.309 304.627,47.379 	"/>
	<polygon fill="#F1E7D3" points="247.122,117.802 352.445,52.746 274.742,146.919 	"/>
	<polygon fill="#F27270" points="317.452,95.355 347.81,146.919 321.949,121.791 	"/>
	<polygon fill="#D03147" points="299.993,124.718 317.452,95.355 321.949,121.791 	"/>
	<polygon fill="#6D0F25" points="275.107,146.919 317.452,95.355 299.993,124.718 	"/>
	<polygon fill="#84BFB9" points="317.452,95.355 334.948,74.051 352.445,52.746 340.517,103.852 347.81,146.919 332.632,121.139 	
		"/>
	<polygon fill="#046370" points="259.978,44.328 298.105,86.309 247.122,117.802 265.713,71.967 	"/>
	<polygon fill="#997F6A" points="324.876,25.178 352.445,52.746 298.105,86.309 	"/>
	<polygon fill="#6D0F25" points="259.978,44.328 276.323,52.418 298.105,86.309 	"/>
	<polygon fill="#05363D" points="259.978,44.328 298.105,86.309 291.557,90.355 265.713,71.967 	"/>
	<polyline fill="none" stroke="#FCFDFF" stroke-width="0.2672" stroke-linecap="round" stroke-miterlimit="10" points="
		265.713,71.967 291.557,90.355 300.026,115.238 299.993,124.718 	"/>
	<polyline fill="none" stroke="#FCFDFF" stroke-width="0.2672" stroke-linecap="round" stroke-miterlimit="10" points="
		261.2,109.105 273.454,77.475 269.942,55.301 	"/>
	<polygon fill="#0C9696" points="19.432,58.577 39.793,99.066 51.57,143.457 29.039,112.214 	"/>
	<polygon fill="#F1E7D3" points="59.666,24.476 103.708,51.074 96.67,66.846 	"/>
	<polygon fill="#997F6A" points="59.666,24.476 19.432,58.577 39.793,99.066 51.57,143.457 75.854,147.139 98.438,114.589 
		103.708,104.869 66.127,111.391 60.156,68.635 96.67,66.846 	"/>
	<polygon fill="#05363D" points="103.708,105.154 103.708,110.023 75.854,147.421 99.681,107.41 	"/>
	<polygon fill="#6D0F25" points="59.666,24.476 60.156,68.635 19.432,58.577 	"/>
	<polygon fill="#F1E7D3" points="60.156,68.635 39.793,99.066 66.127,111.391 	"/>
	<polygon fill="#D03147" points="51.57,143.457 75.854,147.139 66.211,111.925 66.127,111.391 	"/>
	<path fill="#002536" d="M39.793,99.066"/>
	<polygon fill="#046370" points="19.432,58.577 39.793,99.066 51.57,143.457 32.217,104.912 	"/>
	<polygon fill="#D03147" points="60.156,68.635 19.432,58.577 39.793,99.066 	"/>
	<polygon fill="#6D0F25" points="39.793,99.066 66.127,111.391 51.57,143.457 	"/>
	<polygon fill="#F1E7D3" points="66.127,111.391 99.681,107.125 103.708,104.869 	"/>
	<polygon fill="#84BFB9" points="356.507,47.481 463.154,25.944 389.335,55.472 	"/>
	<polygon fill="#005F65" points="389.335,55.472 422.486,42.211 422.486,77.356 	"/>
	<polygon fill="#F1E7D3" points="422.486,42.211 434.496,46.787 463.154,25.944 	"/>
	<polygon fill="#997F6A" points="434.496,46.787 422.486,78.052 422.486,42.211 	"/>
	<polygon fill="#D8CBB8" points="434.496,46.787 463.154,25.944 424.25,73.47 	"/>
	<polygon fill="#D03147" points="389.335,55.472 421.724,92.488 422.486,77.356 	"/>
	<polygon fill="#F27270" points="422.406,77.356 433.218,126.923 419.296,146.189 	"/>
	<polyline fill="#6D0F25" points="356.507,47.481 394.011,60.656 389.335,55.472 356.103,47.481 	"/>
	<g>
		<polyline fill="none" stroke="#FFFFFF" stroke-width="0.2283" stroke-linecap="round" stroke-miterlimit="10" points="
			389.335,40.852 415.546,44.988 413.828,71.639 		"/>
		<polyline fill="none" stroke="#FFFFFF" stroke-width="0.2283" stroke-linecap="round" stroke-miterlimit="10" points="
			409.832,36.344 448.828,36.367 431.296,64.189 		"/>
	</g>
	<polygon fill="#D03147" points="419.296,146.189 395.264,136.285 419.656,138.193 	"/>
	<polygon fill="#6D0F25" points="401.02,136.736 395.264,136.285 404.416,130.854 	"/>
	<polygon fill="#0C9696" points="352.445,52.746 333.669,101.962 347.81,146.919 340.517,103.852 	"/>
	<polyline fill="none" stroke="#FCFDFF" stroke-width="0.2672" stroke-linecap="round" stroke-miterlimit="10" points="
		340.517,103.852 333.669,101.962 317.452,95.355 263.477,135.042 	"/>
	<polygon fill="#05363D" points="471.787,104.014 466.479,133.436 453.744,130.287 	"/>
	<polygon fill="#84BFB9" points="647.57,46.377 754.216,24.839 680.398,54.367 	"/>
	<polygon fill="#005F65" points="680.398,54.367 713.548,41.105 713.548,76.252 	"/>
	<polygon fill="#F1E7D3" points="713.548,41.105 725.558,45.683 754.216,24.839 	"/>
	<polygon fill="#997F6A" points="725.558,45.683 713.548,76.947 713.548,41.105 	"/>
	<polygon fill="#D8CBB8" points="725.558,45.683 754.216,24.839 715.311,72.365 	"/>
	<polygon fill="#D03147" points="680.398,54.367 712.785,91.384 713.548,76.252 	"/>
	<polygon fill="#F27270" points="713.468,76.252 724.281,125.818 710.359,145.085 	"/>
	<polyline fill="#6D0F25" points="647.57,46.377 685.072,59.552 680.398,54.367 647.164,46.377 	"/>
	<g>
		<polyline fill="none" stroke="#FFFFFF" stroke-width="0.2283" stroke-linecap="round" stroke-miterlimit="10" points="
			680.398,39.748 706.607,43.883 704.89,70.535 		"/>
		<polyline fill="none" stroke="#FFFFFF" stroke-width="0.2283" stroke-linecap="round" stroke-miterlimit="10" points="
			700.895,35.239 739.888,35.262 722.357,63.086 		"/>
	</g>
	<polygon fill="#D03147" points="710.359,145.085 686.324,135.182 710.718,137.089 	"/>
	<polygon fill="#6D0F25" points="692.082,135.632 686.324,135.182 695.477,129.748 	"/>
	<polyline fill="none" stroke="#FFFFFF" stroke-width="0.2585" stroke-linecap="round" stroke-miterlimit="10" points="
		89.843,42.523 82.264,50.364 60.312,50.364 39.666,63.431 39.793,99.066 32.217,104.912 29.039,112.214 	"/>
	<polyline fill="none" stroke="#FFFFFF" stroke-width="0.2585" stroke-linecap="round" stroke-miterlimit="10" points="
		39.793,99.066 61.619,120.925 68.936,122.232 78.605,109.949 91.934,106.812 	"/>
	<polygon fill="#005F65" points="563.66,58.577 584.021,99.066 595.798,143.457 573.267,112.214 	"/>
	<polygon fill="#F1E7D3" points="603.894,24.476 647.936,51.074 640.898,66.846 	"/>
	<polygon fill="#997F6A" points="603.894,24.476 563.66,58.577 584.021,99.066 595.798,143.457 620.082,147.139 642.666,114.589 
		647.936,104.869 610.355,111.391 604.384,68.635 640.898,66.846 	"/>
	<polygon fill="#0B333A" points="647.936,105.154 647.936,110.023 620.082,147.421 643.91,107.41 	"/>
	<polygon fill="#6D0F25" points="603.894,24.476 604.384,68.635 563.66,58.577 	"/>
	<polygon fill="#F1E7D3" points="604.384,68.635 584.021,99.066 610.355,111.391 	"/>
	<polygon fill="#D03147" points="595.798,143.457 620.082,147.139 610.439,111.925 610.355,111.391 	"/>
	<path fill="#002536" d="M584.021,99.066"/>
	<polygon fill="#0B333A" points="563.66,58.577 584.021,99.066 595.798,143.457 576.445,104.912 	"/>
	<polygon fill="#D03147" points="604.384,68.635 563.66,58.577 584.021,99.066 	"/>
	<polygon fill="#6D0F25" points="584.021,99.066 610.355,111.391 595.798,143.457 	"/>
	<polygon fill="#F1E7D3" points="610.355,111.391 643.91,107.125 647.936,104.869 	"/>
	<polyline fill="none" stroke="#FFFFFF" stroke-width="0.2585" stroke-linecap="round" stroke-miterlimit="10" points="
		634.07,42.523 626.492,50.364 604.539,50.364 583.894,63.431 584.021,99.066 576.445,104.912 573.267,112.214 	"/>
	<polyline fill="none" stroke="#FFFFFF" stroke-width="0.2585" stroke-linecap="round" stroke-miterlimit="10" points="
		584.021,99.066 605.847,120.925 613.164,122.232 622.833,109.949 636.162,106.812 	"/>
	<g>
		<g>
			<polygon fill="#0C9696" points="172.366,65.411 149.902,90.48 172.366,112.941 182.996,127.582 205.055,93.689 			"/>
			<polygon fill="#84BFB9" points="175.573,83.261 166.754,93.289 178.381,104.117 187.606,93.689 			"/>
			<polygon fill="#601748" points="172.366,65.411 161.335,49.168 182.996,49.168 			"/>
			<polygon fill="#681C4A" points="205.055,93.689 220.613,78.412 221.499,99.104 			"/>
			<polygon fill="#681C4A" points="182.996,127.582 187.606,145.83 156.123,146.832 164.543,127.582 			"/>
			<polygon fill="#5E1845" points="149.902,90.48 133.863,81.255 131.052,96.496 			"/>
			<polygon fill="#490F38" points="133.863,81.255 161.335,49.168 172.366,65.411 149.902,90.48 			"/>
			<polygon fill="#561440" points="149.902,90.48 173.049,113.882 164.543,127.582 131.052,96.496 			"/>
			<polygon fill="#5E1845" points="173.049,113.882 182.996,127.582 164.543,127.582 			"/>
			<polygon fill="#84BFB9" points="205.055,93.689 182.996,127.582 187.606,145.83 221.499,99.104 			"/>
			<polygon fill="#561440" points="172.366,65.411 182.996,49.168 220.613,78.412 205.055,93.689 			"/>
			<polygon fill="#D0294E" points="182.996,49.168 205.055,35.33 166.754,25.303 161.335,49.168 			"/>
			<polygon fill="#D03147" points="205.055,35.33 236.139,90.48 182.996,49.168 			"/>
			<polygon fill="#F1E7D3" points="220.613,78.412 236.139,90.48 221.499,99.104 			"/>
			<polygon fill="#997F6A" points="236.139,90.48 187.606,145.83 221.499,99.104 			"/>
			<polygon fill="#6D0F25" points="131.052,96.496 110.397,96.496 156.123,146.832 164.543,127.582 			"/>
			<polygon fill="#B62347" points="118.318,66.614 133.863,81.255 131.052,96.496 110.397,96.496 			"/>
			<polygon fill="#C61F4C" points="118.318,66.614 166.754,25.303 161.335,49.168 133.863,81.255 			"/>
			<polygon fill="#F1E7D3" points="236.139,90.48 213.275,143.021 187.606,145.83 			"/>
			<polygon fill="#061E25" points="175.573,83.261 177.177,93.689 187.606,93.689 			"/>
			<polygon fill="#84BFB9" points="177.177,93.689 178.381,104.117 187.606,93.689 			"/>
			<polygon fill="#0B333A" points="177.177,93.689 178.381,104.117 166.754,93.289 			"/>
			<polygon fill="#0B333A" points="187.606,93.689 205.055,93.689 182.996,127.582 182.996,127.582 			"/>
			<polygon fill="#10464C" points="178.381,104.117 173.049,113.882 149.902,90.48 166.754,93.289 			"/>
			<polygon fill="#10464C" points="172.366,65.411 175.573,83.261 187.606,93.689 205.055,93.689 			"/>
			<polygon fill="#0B333A" points="178.381,104.117 182.996,127.582 173.049,113.882 			"/>
		</g>
		<g>
			<polyline fill="none" stroke="#FFFFFF" stroke-width="0.3033" stroke-linecap="round" stroke-miterlimit="10" points="
				186.01,30.346 171.862,49.168 166.653,57.001 165.147,73.468 167.786,92.109 177.177,93.689 184.025,97.74 185.573,108.636 
				194.769,109.49 210.777,113.882 222.553,105.975 204.252,143.602 			"/>
			<polyline fill="none" stroke="#FFFFFF" stroke-width="0.3033" stroke-linecap="round" stroke-miterlimit="10" points="
				215.17,53.278 198.408,61.149 186.345,77.507 185.894,92.203 177.177,93.689 175.092,101.057 158.926,99.604 141.27,105.98 
				134.465,122.992 			"/>
		</g>
	</g>
</g>
</svg>
