<?xml version="1.0" encoding="utf-8"?>
<!-- Generator: Adobe Illustrator 16.0.4, SVG Export Plug-In . SVG Version: 6.00 Build 0)  -->
<!DOCTYPE svg PUBLIC "-//W3C//DTD SVG 1.1//EN" "http://www.w3.org/Graphics/SVG/1.1/DTD/svg11.dtd">
<svg version="1.1" id="hello-svg" xmlns="http://www.w3.org/2000/svg" xmlns:xlink="http://www.w3.org/1999/xlink" x="0px" y="0px"
	 width="704.76px" height="208.402px" viewBox="0 0 704.76 208.402" enable-background="new 0 0 704.76 208.402"
	 xml:space="preserve">
<g>
	<g>
		<polygon fill="#997F6A" points="319.822,59.794 287.306,147.018 279.903,63.265 		"/>
		<polygon fill="#6D0F25" points="299.861,40.009 279.903,63.265 319.822,59.794 		"/>
		<polygon fill="#F1E7D3" points="319.822,59.794 319.822,142.756 287.306,147.018 		"/>
		<polygon fill="#D03147" points="319.822,59.794 327.11,54.933 319.822,142.756 		"/>
		<polygon fill="#F27270" points="299.861,40.009 327.11,54.933 319.822,59.794 		"/>
		<polygon fill="#D03147" points="319.822,142.756 319.822,179.551 287.306,147.018 		"/>
		<polygon fill="#F1E7D3" points="319.822,142.756 387.856,176.772 319.822,179.551 		"/>
		<polygon fill="#997F6A" points="387.856,176.772 387.856,145.199 319.822,142.756 		"/>
		<path fill="#003A36" d="M391.329,140.672"/>
		<polygon fill="#E6DAB1" points="387.856,145.199 397.647,137.006 387.856,176.772 		"/>
		<polygon fill="#F1E7D3" points="319.822,142.756 397.647,137.006 387.856,145.199 		"/>
		<polygon fill="#6D0F25" points="319.822,112.311 328.151,135.237 319.822,142.756 		"/>
		<polygon fill="#B62347" points="328.151,135.237 347.146,140.672 319.822,142.756 		"/>
		<polygon fill="#B62347" points="279.903,63.265 283.056,155.19 287.306,147.018 		"/>
		<polygon fill="#6D0F25" points="287.306,147.018 319.822,179.551 283.056,155.19 		"/>
	</g>
	<polyline fill="none" stroke="#FFFFFF" stroke-width="0.2559" stroke-linecap="round" stroke-miterlimit="10" points="
		299.861,40.009 310.433,60.609 285.494,126.504 282.775,147.018 	"/>
	<polyline fill="none" stroke="#FFFFFF" stroke-width="0.2559" stroke-linecap="round" stroke-miterlimit="10" points="
		371.905,138.996 360.751,141.565 360.699,163.196 319.822,163.285 302.979,144.965 319.822,92.386 323.467,57.364 	"/>
</g>
<g>
	<g>
		<polygon fill="#997F6A" points="445.6,59.794 413.085,147.018 405.683,63.265 		"/>
		<polygon fill="#6D0F25" points="425.64,40.009 405.683,63.265 445.6,59.794 		"/>
		<polygon fill="#F1E7D3" points="445.6,59.794 445.6,142.756 413.085,147.018 		"/>
		<polygon fill="#D03147" points="445.6,59.794 452.889,54.933 445.6,142.756 		"/>
		<polygon fill="#F27270" points="425.64,40.009 452.889,54.933 445.6,59.794 		"/>
		<polygon fill="#D03147" points="445.6,142.756 445.6,179.551 413.085,147.018 		"/>
		<polygon fill="#F1E7D3" points="445.6,142.756 513.638,176.772 445.6,179.551 		"/>
		<polygon fill="#997F6A" points="513.638,176.772 513.638,145.199 445.6,142.756 		"/>
		<path fill="#003A36" d="M517.109,140.672"/>
		<polygon fill="#E6DAB1" points="513.638,145.199 523.425,137.006 513.638,176.772 		"/>
		<polygon fill="#F1E7D3" points="445.6,142.756 523.425,137.006 513.638,145.199 		"/>
		<polygon fill="#6D0F25" points="445.6,112.311 453.933,135.237 445.6,142.756 		"/>
		<polygon fill="#B62347" points="453.933,135.237 472.925,140.672 445.6,142.756 		"/>
		<polygon fill="#B62347" points="405.683,63.265 408.836,155.19 413.085,147.018 		"/>
		<polygon fill="#6D0F25" points="413.085,147.018 445.6,179.551 408.836,155.19 		"/>
	</g>
	<polyline fill="none" stroke="#FFFFFF" stroke-width="0.2559" stroke-linecap="round" stroke-miterlimit="10" points="
		425.64,40.009 436.213,60.609 411.272,126.504 408.556,147.018 	"/>
	<polyline fill="none" stroke="#FFFFFF" stroke-width="0.2559" stroke-linecap="round" stroke-miterlimit="10" points="
		497.688,138.996 486.531,141.565 486.481,163.196 445.6,163.285 428.758,144.965 445.6,92.386 449.247,57.364 	"/>
</g>
<g>
	<g>
		<polygon fill="#145759" points="607.173,86.177 581.459,114.875 607.173,140.588 619.343,157.348 644.595,118.549 		"/>
		<polygon fill="#10464C" points="610.845,106.61 600.749,118.09 614.061,130.485 624.621,118.549 		"/>
		<polygon fill="#601748" points="607.173,86.177 594.547,67.583 619.343,67.583 		"/>
		<polygon fill="#681C4A" points="644.595,118.549 662.406,101.06 663.42,124.746 		"/>
		<polygon fill="#681C4A" points="619.343,157.348 624.621,178.239 588.579,179.385 598.218,157.348 		"/>
		<polygon fill="#5E1845" points="581.459,114.875 563.097,104.315 559.879,121.762 		"/>
		<polygon fill="#490F38" points="563.097,104.315 594.547,67.583 607.173,86.177 581.459,114.875 		"/>
		<polygon fill="#561440" points="581.459,114.875 607.957,141.666 598.218,157.348 559.879,121.762 		"/>
		<polygon fill="#5E1845" points="607.957,141.666 619.343,157.348 598.218,157.348 		"/>
		<polygon fill="#0B4949" points="644.595,118.549 619.343,157.348 624.621,178.239 663.42,124.746 		"/>
		<polygon fill="#561440" points="607.173,86.177 619.343,67.583 662.406,101.06 644.595,118.549 		"/>
		<polygon fill="#D0294E" points="619.343,67.583 644.595,51.741 600.749,40.263 594.547,67.583 		"/>
		<polygon fill="#D03147" points="644.595,51.741 680.179,114.875 619.343,67.583 		"/>
		<polygon fill="#F1E7D3" points="662.406,101.06 680.179,114.875 663.42,124.746 		"/>
		<polygon fill="#997F6A" points="680.179,114.875 624.621,178.239 663.42,124.746 		"/>
		<polygon fill="#6D0F25" points="559.879,121.762 536.233,121.762 588.579,179.385 598.218,157.348 		"/>
		<polygon fill="#B62347" points="545.302,87.555 563.097,104.315 559.879,121.762 536.233,121.762 		"/>
		<polygon fill="#C61F4C" points="545.302,87.555 600.749,40.263 594.547,67.583 563.097,104.315 		"/>
		<polygon fill="#F1E7D3" points="680.179,114.875 654.005,175.022 624.621,178.239 		"/>
		<polygon fill="#061E25" points="610.845,106.61 612.681,118.549 624.621,118.549 		"/>
		<polygon fill="#08262D" points="612.681,118.549 614.061,130.485 624.621,118.549 		"/>
		<polygon fill="#0B333A" points="612.681,118.549 614.061,130.485 600.749,118.09 		"/>
		<polygon fill="#0B333A" points="624.621,118.549 644.595,118.549 619.343,157.348 619.343,157.348 		"/>
		<polygon fill="#10464C" points="614.061,130.485 607.957,141.666 581.459,114.875 600.749,118.09 		"/>
		<polygon fill="#10464C" points="607.173,86.177 610.845,106.61 624.621,118.549 644.595,118.549 		"/>
		<polygon fill="#0B333A" points="614.061,130.485 619.343,157.348 607.957,141.666 		"/>
	</g>
	<g>
		<polyline fill="none" stroke="#FFFFFF" stroke-width="0.3033" stroke-linecap="round" stroke-miterlimit="10" points="
			622.793,46.037 606.598,67.583 600.635,76.551 598.909,95.4 601.932,116.74 612.681,118.549 620.521,123.186 622.293,135.658 
			632.82,136.637 651.146,141.666 664.626,132.612 643.675,175.688 		"/>
		<polyline fill="none" stroke="#FFFFFF" stroke-width="0.3033" stroke-linecap="round" stroke-miterlimit="10" points="
			656.175,72.289 636.986,81.299 623.177,100.025 622.659,116.848 612.681,118.549 610.295,126.983 591.788,125.321 
			571.576,132.619 563.786,152.094 		"/>
	</g>
</g>
<g>
	<polygon fill="#005F65" points="72.731,40.584 58.446,69.469 80.349,84.39 87.968,70.424 	"/>
	<polygon fill="#005256" points="58.446,69.469 80.349,84.39 91.143,106.926 64.337,105.231 	"/>
	<polygon fill="#007176" points="87.968,70.424 96.221,92.961 91.143,106.926 80.349,84.39 	"/>
	<polygon fill="#BB1F42" points="115.506,103.666 146.42,120.705 139.578,133.416 	"/>
	<polygon fill="#E6DAB1" points="111.279,101.325 141.93,36.457 128.281,92.961 	"/>
	<polygon fill="#F1E7D3" points="141.93,36.457 144.153,119.531 128.281,92.961 	"/>
	<polygon fill="#997F6A" points="128.281,92.961 144.153,119.531 111.279,101.325 	"/>
	<polygon fill="#9B1B36" points="126.476,117.223 140.404,179.028 139.578,133.416 	"/>
	<polygon fill="#9B1B36" points="96.221,92.961 112.411,99.835 121.615,111.223 124.646,114.916 91.143,106.926 	"/>
	<polygon fill="#BB1F42" points="96.221,92.961 91.143,106.926 121.615,111.223 	"/>
	<polygon fill="#F1E7D3" points="91.143,106.926 61.621,180.252 102.053,109.528 	"/>
	<polygon fill="#997F6A" points="64.337,105.231 91.143,106.926 61.621,180.252 	"/>
	<polygon fill="#E43552" points="146.42,120.705 140.42,179.942 139.578,133.416 	"/>
	<g>
		<polyline fill="none" stroke="#FFFFFF" stroke-width="0.2559" stroke-linecap="round" stroke-miterlimit="10" points="
			80.349,56.451 69.449,76.965 74.777,105.891 71.784,155.01 		"/>
		<polyline fill="none" stroke="#FFFFFF" stroke-width="0.2559" stroke-linecap="round" stroke-miterlimit="10" points="
			64.197,109.078 89.394,111.264 95.585,119.531 91.143,106.926 104.316,102.868 117.945,105.014 131.242,97.916 142.28,49.485 		
			"/>
		<polyline fill="none" stroke="#FFFFFF" stroke-width="0.2559" stroke-linecap="round" stroke-miterlimit="10" points="
			125.353,71.54 135.219,64.238 135.06,104.307 125.523,109.213 144.153,124.588 140.444,179.699 		"/>
	</g>
</g>
<g>
	<polygon fill="#7F1330" points="241.988,119.201 192.46,142.496 167.174,138.44 203.029,104.595 	"/>
	<polygon fill="#0C9795" points="234.3,156.662 192.46,142.496 196.173,175.643 	"/>
	<polygon fill="#6D0F25" points="192.46,142.496 167.174,138.44 196.173,175.643 	"/>
	<polygon fill="#F1E7D3" points="234.3,156.662 249.97,178.698 196.173,175.643 	"/>
	<polygon fill="#008A86" points="250.285,178.698 256.489,153.156 234.356,156.85 	"/>
	<polygon fill="#6D0F25" points="241.988,119.201 204.525,119.201 192.46,142.496 	"/>
	<polygon fill="#F27270" points="204.525,119.201 203.029,104.595 167.174,138.44 	"/>
	<polygon fill="#B62347" points="204.525,119.201 192.46,142.496 167.174,138.44 	"/>
	<g>
		<polygon fill="#B62347" points="199.411,84.475 242.985,119.201 170.008,110.59 		"/>
		<polygon fill="#004746" points="170.008,110.59 188.117,53.422 199.411,84.475 		"/>
		<polygon fill="#0C9795" points="188.117,53.422 239.545,82.715 199.411,84.475 		"/>
		<polygon fill="#F1E7D3" points="188.117,53.422 248.186,54.835 239.545,82.715 		"/>
		<polygon fill="#008A86" points="248.186,54.835 255.655,74.893 239.545,82.715 		"/>
		<polygon fill="#6D0F25" points="170.008,110.59 207.723,110.424 242.985,119.201 		"/>
		<polygon fill="#F27270" points="170.008,110.59 199.411,84.475 207.723,110.424 		"/>
		<polyline fill="none" stroke="#FFFFFF" stroke-width="0.2559" stroke-linecap="round" stroke-miterlimit="10" points="
			255.655,74.893 244.957,65.252 206.812,64.07 191.978,64.037 181.931,100.001 204.323,99.809 242.985,119.201 		"/>
	</g>
	<polyline fill="none" stroke="#FFFFFF" stroke-width="0.2559" stroke-linecap="round" stroke-miterlimit="10" points="
		241.988,119.201 203.595,110.131 179.067,132.315 174.641,138.908 194.561,161.248 213.367,167.084 242.864,168.703 
		256.489,153.156 	"/>
</g>
</svg>
