<?xml version="1.0" encoding="utf-8"?>
<!-- Generator: Adobe Illustrator 16.0.4, SVG Export Plug-In . SVG Version: 6.00 Build 0)  -->
<!DOCTYPE svg PUBLIC "-//W3C//DTD SVG 1.1//EN" "http://www.w3.org/Graphics/SVG/1.1/DTD/svg11.dtd">
<svg version="1.1" id="Layer_1" xmlns="http://www.w3.org/2000/svg" xmlns:xlink="http://www.w3.org/1999/xlink" x="0px" y="0px"
	 width="250px" height="250px" viewBox="0 0 250 250" enable-background="new 0 0 250 250" xml:space="preserve">
<polygon fill="#990A0A" points="335.848,278.443 116.547,278.443 127.275,261.635 346.582,261.635 "/>
<g opacity="0.7">
	<path fill="#F1E7D3" d="M522.959,390.918c-1.286,0-2.197,0.128-2.625,0.262v7.487h2.702c2.842,0,4.637-1.546,4.637-3.906
		C527.673,392.115,525.76,390.954,522.959,390.918z"/>
	<path fill="#F1E7D3" d="M541.046,391.373h-0.057c-0.302,1.227-0.649,2.482-1.029,3.729l-2.021,5.943h6.187l-2.015-5.916
		C541.661,393.786,541.356,392.57,541.046,391.373z"/>
	<path fill="#F1E7D3" d="M541,237.143L435.839,419.287h210.32L541,237.143z M540.999,270.839l66.252,114.752H474.748
		L540.999,270.839z M462.885,409.564h-2.646v-20.53h2.646V409.564z M482.933,409.562L482.933,409.562l-0.001,0.002h-2.686
		l-6.521-10.408c-1.43-2.297-2.807-4.633-3.838-6.854l-0.083,0.025c0.146,2.588,0.206,5.055,0.206,8.461v8.774h-2.497v-20.531h2.896
		l6.58,10.382c1.51,2.422,2.711,4.573,3.681,6.685l0.062-0.041c-0.238-2.742-0.303-5.226-0.303-8.435v-8.591h2.5v20.529h0.003
		V409.562z M494.134,391.288v18.272h-2.675v-18.272h-6.248v-2.255h15.201l0.001,2.255H494.134z M514.24,409.564h-11.542v-20.53
		h11.085v2.221h-8.434v6.502h7.979v2.188h-7.979v7.396h8.891V409.564z M528.315,409.561v0.004c-0.34-0.606-0.792-2.349-1.37-4.896
		c-0.615-2.829-1.702-3.906-4.111-3.995h-2.5v8.895h-2.646v-20.249c1.334-0.282,3.253-0.433,5.087-0.433
		c2.835,0,4.657,0.513,5.935,1.673c1.037,0.911,1.611,2.317,1.611,3.898c0,2.712-1.704,4.513-3.856,5.241v0.098
		c1.582,0.535,2.524,2,3.013,4.133c0.675,2.866,1.164,4.85,1.578,5.634h-2.739V409.561z M546.86,409.564l-2.188-6.463h-7.28
		l-2.127,6.463h-2.738l6.978-20.53h3.19l7.006,20.53H546.86z M562.196,407.648c1.611,0,3.258-0.328,4.312-0.854l0.553,2.098
		c-0.979,0.48-2.926,1.012-5.422,1.012c-5.779,0-10.144-3.694-10.144-10.436c0-6.417,4.359-10.771,10.708-10.771
		c2.581,0,4.188,0.557,4.891,0.924l-0.646,2.153c-0.996-0.487-2.436-0.857-4.146-0.857c-4.795,0-8.006,3.082-8.006,8.472
		C554.302,404.418,557.198,407.648,562.196,407.648z M583.229,391.288h-6.265v18.272h-2.686v-18.272h-6.233v-2.255h15.186
		L583.229,391.288L583.229,391.288z M588.169,409.564h-2.641v-20.53h2.641V409.564z M600.235,409.564h-2.928l-6.702-20.53h2.875
		l3.188,10.122c0.892,2.75,1.653,5.263,2.195,7.662h0.067c0.574-2.365,1.42-4.963,2.348-7.635l3.457-10.148h2.84L600.235,409.564z
		 M609.806,409.566v-0.002v-20.53h11.086v2.221h-8.438v6.502h7.979v2.188h-7.979v7.396h8.896v2.229h-11.544V409.566z"/>
</g>
<path fill="#D03147" d="M125,33.928L19.84,216.072h210.32L125,33.928z M125,61.249l73.611,127.501H51.387L125,61.249z"/>
<text transform="matrix(1 0 0 1 68.4814 209.7666)" fill="#FFFFFF" font-family="'Metrophobic'" font-size="18">INTERACTIVE</text>
<line fill="none" stroke="#FFFFFF" x1="183.95" y1="244.927" x2="237.271" y2="152.566"/>
<line fill="none" stroke="#FFFFFF" x1="173.997" y1="247.427" x2="241.016" y2="131.348"/>
<polygon fill="#F27270" points="215.676,190.916 201.075,216.072 230.16,216.072 "/>
</svg>
