<?xml version="1.0" encoding="utf-8"?>
<!-- Generator: Adobe Illustrator 16.0.4, SVG Export Plug-In . SVG Version: 6.00 Build 0)  -->
<!DOCTYPE svg PUBLIC "-//W3C//DTD SVG 1.1//EN" "http://www.w3.org/Graphics/SVG/1.1/DTD/svg11.dtd">
<svg version="1.1" id="interactive-svg" xmlns="http://www.w3.org/2000/svg" xmlns:xlink="http://www.w3.org/1999/xlink" x="0px"
	 y="0px" width="760px" height="172px" viewBox="0 0 760 172" enable-background="new 0 0 760 172" xml:space="preserve">
<g>
	<polygon fill="#F1E7D3" points="81.656,112.831 83.463,131.139 69.479,141.745 69.936,114.638 	"/>
	<g>
		<g>
			<polygon fill="#442F27" points="69.852,73.173 70.354,85.431 61.914,78.917 			"/>
			<polygon fill="#543C32" points="69.754,73.114 70.354,85.431 77.648,78.182 			"/>
		</g>
		<path fill="#D7AA8B" d="M69.754,72.604l-8.525,6.284l9.193,6.993l7.856-7.7L69.754,72.604z M70.354,85.218l-8.274-6.294
			l7.674-5.657l7.672,5.021L70.354,85.218z"/>
		<g>
			<g>
				<polygon fill="#7F1330" points="267.308,103.622 235.571,118.549 219.368,115.948 242.343,94.261 				"/>
				<polygon fill="#0C9795" points="262.381,127.626 235.571,118.549 237.95,139.788 				"/>
				<polygon fill="#6D0F25" points="235.571,118.549 219.368,115.948 237.95,139.788 				"/>
				<polygon fill="#F1E7D3" points="262.381,127.626 272.422,141.745 237.95,139.788 				"/>
				<polygon fill="#008A86" points="272.625,141.745 276.6,125.38 262.418,127.745 				"/>
				<polygon fill="#6D0F25" points="267.308,103.622 243.302,103.622 235.571,118.549 				"/>
				<polygon fill="#F27270" points="243.302,103.622 242.343,94.261 219.368,115.948 				"/>
				<polygon fill="#B62347" points="243.302,103.622 235.571,118.549 219.368,115.948 				"/>
				<g>
					<polygon fill="#B62347" points="240.025,81.368 267.946,103.622 221.185,98.104 					"/>
					<polygon fill="#004746" points="221.185,98.104 232.788,61.471 240.025,81.368 					"/>
					<polygon fill="#0C9795" points="232.788,61.471 265.742,80.241 240.025,81.368 					"/>
					<polygon fill="#F1E7D3" points="232.788,61.471 271.279,62.376 265.742,80.241 					"/>
					<polygon fill="#008A86" points="271.279,62.376 276.066,75.229 265.742,80.241 					"/>
					<polygon fill="#6D0F25" points="221.185,98.104 245.352,97.997 267.946,103.622 					"/>
					<polygon fill="#F27270" points="221.185,98.104 240.025,81.368 245.352,97.997 					"/>
					<polyline fill="none" stroke="#FFFFFF" stroke-width="0.164" stroke-linecap="round" stroke-miterlimit="10" points="
						276.066,75.229 269.211,69.052 244.768,68.295 235.261,68.273 228.824,91.316 243.172,91.194 267.946,103.622 					"/>
				</g>
				<polyline fill="none" stroke="#FFFFFF" stroke-width="0.164" stroke-linecap="round" stroke-miterlimit="10" points="
					267.308,103.622 242.708,97.809 226.989,112.024 224.152,116.249 236.918,130.564 248.966,134.305 267.869,135.342 
					276.6,125.38 				"/>
			</g>
			<g>
				<polygon fill="#7F1330" points="693.115,103.446 661.232,118.441 644.955,115.829 668.036,94.042 				"/>
				<polygon fill="#0C9795" points="688.167,127.561 661.232,118.441 663.623,139.778 				"/>
				<polygon fill="#6D0F25" points="661.232,118.441 644.955,115.829 663.623,139.778 				"/>
				<polygon fill="#F1E7D3" points="688.167,127.561 698.255,141.745 663.623,139.778 				"/>
				<polygon fill="#008A86" points="698.457,141.745 702.45,125.305 688.203,127.682 				"/>
				<polygon fill="#6D0F25" points="693.115,103.446 669,103.446 661.232,118.441 				"/>
				<polygon fill="#F27270" points="669,103.446 668.036,94.042 644.955,115.829 				"/>
				<polygon fill="#B62347" points="669,103.446 661.232,118.441 644.955,115.829 				"/>
				<g>
					<polygon fill="#B62347" points="665.707,81.09 693.757,103.446 646.781,97.903 					"/>
					<polygon fill="#004746" points="646.781,97.903 658.438,61.101 665.707,81.09 					"/>
					<polygon fill="#0C9795" points="658.438,61.101 691.544,79.956 665.707,81.09 					"/>
					<polygon fill="#F1E7D3" points="658.438,61.101 697.107,62.009 691.544,79.956 					"/>
					<polygon fill="#008A86" points="697.107,62.009 701.915,74.922 691.544,79.956 					"/>
					<polygon fill="#6D0F25" points="646.781,97.903 671.06,97.795 693.757,103.446 					"/>
					<polygon fill="#F27270" points="646.781,97.903 665.707,81.09 671.06,97.795 					"/>
					<polyline fill="none" stroke="#FFFFFF" stroke-width="0.1647" stroke-linecap="round" stroke-miterlimit="10" points="
						701.915,74.922 695.027,68.716 670.472,67.954 660.923,67.934 654.455,91.083 668.871,90.962 693.757,103.446 					"/>
				</g>
				<polyline fill="none" stroke="#FFFFFF" stroke-width="0.1647" stroke-linecap="round" stroke-miterlimit="10" points="
					693.115,103.446 668.401,97.605 652.611,111.888 649.764,116.132 662.587,130.513 674.692,134.269 693.68,135.312 
					702.45,125.305 				"/>
			</g>
			<g>
				<polygon fill="#F1E7D3" points="576.35,61.055 602.736,79.439 610.737,108.55 				"/>
				<polygon fill="#997F6A" points="602.736,79.439 624.527,61.055 610.737,108.55 				"/>
				<polygon fill="#B82040" points="624.527,61.099 625.62,123.802 644.955,75.058 				"/>
				<polygon fill="#005E67" points="610.737,108.55 584.521,119.444 561.712,76.036 				"/>
				<polygon fill="#00717E" points="576.35,61.055 561.712,76.036 610.737,108.55 				"/>
				<polygon fill="#ED335B" points="610.737,108.55 584.521,119.444 606.481,141.745 626.242,122.681 				"/>
				<polygon fill="#C62244" points="624.527,61.055 624.538,61.566 625.889,122.681 610.737,108.55 				"/>
				<polygon fill="#79162A" points="561.712,76.036 579.33,127.104 584.521,119.444 				"/>
				<polygon fill="#611021" points="584.521,119.444 606.481,141.745 579.33,127.104 				"/>
				<polygon fill="#004949" points="625.889,122.681 626.91,131.36 606.481,141.745 				"/>
				<polygon fill="#005F6B" points="625.889,122.681 644.955,75.058 626.91,131.36 				"/>
			</g>
			<g>
				<polyline fill="none" stroke="#FFFFFF" stroke-width="0.1507" stroke-linecap="round" stroke-miterlimit="10" points="
					572.471,96.672 578.646,86.715 587.328,76.305 604.457,85.184 620.358,75.413 625.106,87.274 637.354,94.042 636.08,102.749 
									"/>
				<polyline fill="none" stroke="#FFFFFF" stroke-width="0.1507" stroke-linecap="round" stroke-miterlimit="10" points="
					575.98,61.432 583.007,90.159 576.778,104.864 577.311,121.975 				"/>
				<polyline fill="none" stroke="#FFFFFF" stroke-width="0.1507" stroke-linecap="round" stroke-miterlimit="10" points="
					643.846,74.134 624.902,96.672 610.737,108.55 593.13,128.188 592.132,134.009 				"/>
				<polyline fill="none" stroke="#FFFFFF" stroke-width="0.1507" stroke-linecap="round" stroke-miterlimit="10" points="
					619.927,134.911 619.343,129.108 598.771,113.522 590.533,95.149 592.767,83.816 601.899,78.487 				"/>
				<polyline fill="none" stroke="#FFFFFF" stroke-width="0.1507" stroke-linecap="round" stroke-miterlimit="10" points="
					573.934,112.19 575.358,102.161 610.737,108.55 624.43,111.223 632.85,105.294 630.932,118.812 				"/>
			</g>
			<g>
				<polygon fill="#0C9696" points="159.103,79.618 146.715,112.085 156.043,141.745 151.232,113.333 				"/>
				<g>
					<polygon fill="#F27270" points="127.554,76.077 123.252,101.76 108.563,78.974 					"/>
					<polygon fill="#D03147" points="140.914,61.43 123.252,101.76 127.554,76.077 					"/>
					<polygon fill="#F1E7D3" points="89.618,122.536 159.103,79.618 107.84,141.745 					"/>
					<polygon fill="#F27270" points="136.017,107.729 156.043,141.745 138.983,125.17 					"/>
					<polygon fill="#D03147" points="124.499,127.099 136.017,107.729 138.983,125.17 					"/>
					<polygon fill="#6D0F25" points="108.08,141.745 136.017,107.729 124.499,127.099 					"/>
					<polygon fill="#84BFB9" points="136.017,107.729 147.56,93.674 159.103,79.618 151.232,113.333 156.043,141.745 
						146.03,124.737 					"/>
					<polygon fill="#046370" points="98.1,74.064 123.252,101.76 89.618,122.536 101.882,92.298 					"/>
					<polygon fill="#997F6A" points="140.914,61.43 159.103,79.618 123.252,101.76 					"/>
					<polygon fill="#6D0F25" points="98.1,74.064 108.882,79.4 123.252,101.76 					"/>
					<polygon fill="#05363D" points="98.1,74.064 123.252,101.76 118.934,104.43 101.882,92.298 					"/>
					<polyline fill="none" stroke="#FCFDFF" stroke-width="0.1763" stroke-linecap="round" stroke-miterlimit="10" points="
						101.882,92.298 118.934,104.43 124.521,120.847 124.499,127.099 					"/>
					<polyline fill="none" stroke="#FCFDFF" stroke-width="0.1763" stroke-linecap="round" stroke-miterlimit="10" points="
						98.905,116.8 106.99,95.933 104.673,81.303 					"/>
					<polyline fill="none" stroke="#FCFDFF" stroke-width="0.1763" stroke-linecap="round" stroke-miterlimit="10" points="
						151.232,113.333 146.715,112.085 136.017,107.729 100.408,133.911 					"/>
				</g>
			</g>
			<g>
				<polygon fill="#84BFB9" points="156.013,75.189 227.922,60.665 178.148,80.577 				"/>
				<polygon fill="#005F65" points="178.148,80.577 200.5,71.634 200.5,95.331 				"/>
				<polygon fill="#F1E7D3" points="200.5,71.634 208.598,74.722 227.922,60.665 				"/>
				<polygon fill="#997F6A" points="208.598,74.722 200.5,95.803 200.5,71.634 				"/>
				<polygon fill="#D8CBB8" points="208.598,74.722 227.922,60.665 201.688,92.712 				"/>
				<polygon fill="#D03147" points="178.148,80.577 199.985,105.534 200.5,95.331 				"/>
				<polygon fill="#F27270" points="200.446,95.331 207.737,128.754 198.351,141.745 				"/>
				<polyline fill="#6D0F25" points="156.013,75.189 181.298,84.071 178.148,80.577 155.738,75.189 				"/>
				<g>
					<polyline fill="none" stroke="#FFFFFF" stroke-width="0.1539" stroke-linecap="round" stroke-miterlimit="10" points="
						178.148,70.719 195.82,73.508 194.662,91.479 					"/>
					<polyline fill="none" stroke="#FFFFFF" stroke-width="0.1539" stroke-linecap="round" stroke-miterlimit="10" points="
						191.968,67.679 218.259,67.694 206.44,86.454 					"/>
				</g>
				<polygon fill="#D03147" points="198.351,141.745 182.144,135.067 198.591,136.354 				"/>
				<polygon fill="#6D0F25" points="186.026,135.372 182.144,135.067 188.315,131.405 				"/>
			</g>
			<g>
				<polygon fill="#84BFB9" points="463.591,74.512 536.232,59.842 485.951,79.954 				"/>
				<polygon fill="#005F65" points="485.951,79.954 508.531,70.921 508.531,94.859 				"/>
				<polygon fill="#F1E7D3" points="508.531,70.921 516.711,74.038 536.232,59.842 				"/>
				<polygon fill="#997F6A" points="516.711,74.038 508.531,95.335 508.531,70.921 				"/>
				<polygon fill="#D8CBB8" points="516.711,74.038 536.232,59.842 509.732,92.214 				"/>
				<polygon fill="#D03147" points="485.951,79.954 508.012,105.167 508.531,94.859 				"/>
				<polygon fill="#F27270" points="508.478,94.859 515.841,128.622 506.359,141.745 				"/>
				<polyline fill="#6D0F25" points="463.591,74.512 489.136,83.485 485.951,79.954 463.314,74.512 				"/>
				<g>
					<polyline fill="none" stroke="#FFFFFF" stroke-width="0.1555" stroke-linecap="round" stroke-miterlimit="10" points="
						485.951,69.997 503.804,72.813 502.634,90.968 					"/>
					<polyline fill="none" stroke="#FFFFFF" stroke-width="0.1555" stroke-linecap="round" stroke-miterlimit="10" points="
						499.912,66.926 526.473,66.941 514.531,85.893 					"/>
				</g>
				<polygon fill="#D03147" points="506.359,141.745 489.987,134.999 506.604,136.299 				"/>
				<polygon fill="#6D0F25" points="493.911,135.308 489.987,134.999 496.222,131.3 				"/>
			</g>
			<g>
				<polygon fill="#0C9696" points="408.079,83.409 421.448,109.995 429.182,139.143 414.387,118.626 				"/>
				<polygon fill="#F1E7D3" points="434.497,61.018 463.416,78.483 458.794,88.839 				"/>
				<polygon fill="#997F6A" points="434.497,61.018 408.079,83.409 421.448,109.995 429.182,139.143 445.127,141.56 
					459.955,120.188 463.416,113.806 438.74,118.088 434.818,90.013 458.794,88.839 				"/>
				<polygon fill="#05363D" points="463.416,113.993 463.416,117.19 445.127,141.745 460.772,115.474 				"/>
				<polygon fill="#6D0F25" points="434.497,61.018 434.818,90.013 408.079,83.409 				"/>
				<polygon fill="#F1E7D3" points="434.818,90.013 421.448,109.995 438.74,118.088 				"/>
				<polygon fill="#D03147" points="429.182,139.143 445.127,141.56 438.796,118.438 438.74,118.088 				"/>
				<path fill="#002536" d="M421.448,109.995"/>
				<polygon fill="#046370" points="408.079,83.409 421.448,109.995 429.182,139.143 416.474,113.833 				"/>
				<polygon fill="#D03147" points="434.818,90.013 408.079,83.409 421.448,109.995 				"/>
				<polygon fill="#6D0F25" points="421.448,109.995 438.74,118.088 429.182,139.143 				"/>
				<polygon fill="#F1E7D3" points="438.74,118.088 460.772,115.286 463.416,113.806 				"/>
				<polyline fill="none" stroke="#FFFFFF" stroke-width="0.1697" stroke-linecap="round" stroke-miterlimit="10" points="
					454.313,72.868 449.336,78.017 434.923,78.017 421.364,86.597 421.448,109.995 416.474,113.833 414.387,118.626 				"/>
				<polyline fill="none" stroke="#FFFFFF" stroke-width="0.1697" stroke-linecap="round" stroke-miterlimit="10" points="
					421.448,109.995 435.78,124.348 440.584,125.206 446.934,117.142 455.685,115.079 				"/>
			</g>
			<polygon fill="#D8CBB8" points="78.277,78.182 84.877,103.639 69.936,114.638 			"/>
			<polygon fill="#F1E7D3" points="70.42,85.882 78.277,78.182 69.936,114.638 			"/>
			<polygon fill="#997F6A" points="84.877,103.639 81.656,112.831 69.936,114.638 			"/>
			<polygon fill="#05363D" points="61.228,78.889 70.42,85.882 69.479,141.745 57.379,132.946 			"/>
			<polygon fill="#005F65" points="70.197,95.191 58.972,134.105 69.411,141.745 			"/>
			<g>
				<polyline fill="none" stroke="#FFFFFF" stroke-width="0.1663" stroke-linecap="round" stroke-miterlimit="10" points="
					59.59,101.887 64.986,105.67 69.936,104.542 				"/>
				<polyline fill="none" stroke="#FFFFFF" stroke-width="0.1663" stroke-linecap="round" stroke-miterlimit="10" points="
					59.914,124.143 69.479,129.13 82.562,122.008 				"/>
				<polyline fill="none" stroke="#FFFFFF" stroke-width="0.1663" stroke-linecap="round" stroke-miterlimit="10" points="
					70.42,90.157 74.075,96.409 82.193,93.284 				"/>
				<polyline fill="none" stroke="#FFFFFF" stroke-width="0.1663" stroke-linecap="round" stroke-miterlimit="10" points="
					78.277,78.182 79.562,107.552 76.841,113.573 77.405,135.731 				"/>
				<polyline fill="none" stroke="#FFFFFF" stroke-width="0.1663" stroke-linecap="round" stroke-miterlimit="10" points="
					64.763,80.676 69.936,76.03 75.638,80.038 				"/>
			</g>
			<g>
				<g>
					<polygon fill="#9B1B36" points="281.53,75.217 294.382,85.423 280.586,141.745 					"/>
					<polygon fill="#E43552" points="294.382,85.423 316.401,61.608 297.028,107.725 					"/>
					<polygon fill="#D03147" points="281.53,75.217 288.335,75.217 294.382,85.423 					"/>
					<polygon fill="#F27270" points="288.335,75.217 294.382,85.423 316.401,61.608 					"/>
					<polygon fill="#9B1B36" points="281.53,75.217 316.401,61.608 288.335,75.217 					"/>
					<polygon fill="#8E7361" points="316.401,61.608 320.808,88.446 297.238,107.223 					"/>
					<polygon fill="#D8CBB8" points="320.808,88.446 334.346,89.958 297.238,107.223 					"/>
					<polygon fill="#F1E7D3" points="316.401,61.608 334.346,89.958 320.808,88.446 					"/>
					<polygon fill="#D03147" points="297.028,107.725 294.382,85.423 280.586,141.745 					"/>
					<polygon fill="#D3AA9B" points="297.028,107.725 280.586,141.745 300.998,124.45 328.78,140.896 					"/>
					<polygon fill="#F1E7D3" points="297.028,107.725 329.489,128.702 328.78,140.896 					"/>
					<polygon fill="#8E7361" points="297.028,107.725 300.998,124.45 328.78,140.896 					"/>
				</g>
				<g>
					<polyline fill="none" stroke="#FFFFFF" stroke-width="0.1485" stroke-linecap="round" stroke-miterlimit="10" points="
						291.911,71.165 297.962,70.549 301.204,78.044 302.866,93.825 319.5,80.483 329.425,82.188 					"/>
					<polyline fill="none" stroke="#FFFFFF" stroke-width="0.1485" stroke-linecap="round" stroke-miterlimit="10" points="
						281.184,99.657 289.145,106.809 290.818,120.573 298.81,115.227 311.555,122.899 309.841,116.006 					"/>
				</g>
			</g>
			<g>
				<polygon fill="#84BFB9" points="395.699,79.04 406.29,132.939 391.572,94.047 				"/>
				<polygon fill="#0C9696" points="391.572,94.047 406.29,132.939 397.105,143.47 				"/>
				<polygon fill="#D8CBB8" points="395.699,79.04 373.544,59.749 397.105,73.927 				"/>
				<polygon fill="#0C9696" points="397.105,73.927 406.29,132.939 395.699,79.04 				"/>
				<polygon fill="#681C4A" points="396.236,135.677 406.29,132.939 397.105,143.47 				"/>
				<g>
					<polygon fill="#D03147" points="373.544,59.749 363.617,91.348 375.096,82.704 					"/>
					<polygon fill="#F27270" points="373.544,59.749 391.572,94.047 375.096,82.704 					"/>
					<polygon fill="#F1E7D3" points="373.544,59.749 397.105,73.927 391.572,94.047 					"/>
					<polygon fill="#046370" points="391.572,94.047 379.959,132.939 397.105,143.47 					"/>
					<polygon fill="#F27270" points="363.617,91.348 357.813,71.63 373.544,59.749 					"/>
					<polygon fill="#6D0F25" points="357.813,71.63 335.798,131.857 363.617,91.348 					"/>
					<polygon fill="#046370" points="335.798,131.857 347.414,141.312 364.562,131.857 348.374,113.547 					"/>
					<polygon fill="#0C9696" points="364.562,131.857 363.617,91.348 348.374,113.547 					"/>
					<path fill="none" stroke="#FFFFFF" stroke-width="0.1591" stroke-linecap="round" stroke-miterlimit="10" d="M379.959,122.54"
						/>
					<polygon fill="#F1E7D3" points="371.116,105.989 363.835,100.631 390.925,98.739 379.315,104.515 					"/>
					<polygon fill="#997F6A" points="371.116,105.989 363.835,100.631 363.835,107.013 364.136,113.547 					"/>
					<polygon fill="#D8CBB8" points="364.136,113.547 371.116,105.989 379.315,104.515 386.854,109.846 					"/>
					<polygon fill="#997F6A" points="379.315,104.515 390.925,98.739 386.854,109.846 386.854,109.846 					"/>
					<polygon fill="#0B333A" points="363.617,91.348 361.594,99.179 359.567,107.013 364.136,113.547 363.835,100.631 
						363.727,95.987 					"/>
					<polygon fill="#0B333A" points="359.567,107.013 364.562,131.857 364.136,113.547 					"/>
					<polygon fill="#0D171F" points="391.572,94.047 390.925,98.739 390.155,98.795 					"/>
					<polygon fill="#0B333A" points="391.572,105.221 385.765,119.079 379.959,132.939 387,109.45 390.925,98.739 391.249,101.981 
											"/>
					<polygon fill="#681C4A" points="364.562,131.857 344.675,134.054 347.414,141.312 					"/>
					<polygon fill="#490F38" points="344.675,134.054 335.798,131.857 347.414,141.312 					"/>
					<polygon fill="#490F38" points="379.959,132.939 396.236,135.677 397.105,143.47 					"/>
					<polyline fill="none" stroke="#FFFFFF" stroke-width="0.1591" stroke-linecap="round" stroke-miterlimit="10" points="
						351.281,89.497 354.721,104.308 359.567,107.013 364.188,114.538 					"/>
					<polyline fill="none" stroke="#FFFFFF" stroke-width="0.1591" stroke-linecap="round" stroke-miterlimit="10" points="
						385.111,115.684 385.614,119.435 394.805,122.915 400.994,118.948 402.644,114.382 402.752,110.215 					"/>
					<polygon fill="#05363D" points="348.374,113.547 344.675,134.054 335.798,131.857 					"/>
				</g>
			</g>
			<g>
				<polygon fill="#997F6A" points="562.177,103.639 558.956,112.831 547.235,114.639 				"/>
				<polygon fill="#F1E7D3" points="558.956,112.831 560.763,131.139 546.777,141.745 547.235,114.639 				"/>
				<polygon fill="#005F65" points="547.497,95.191 536.271,134.105 546.712,141.745 				"/>
				<g>
					<polygon fill="#D8CBB8" points="555.577,78.182 562.177,103.639 547.235,114.639 					"/>
					<polygon fill="#F1E7D3" points="547.721,85.882 555.577,78.182 547.235,114.639 					"/>
					<polygon fill="#05363D" points="538.527,78.889 547.721,85.882 546.777,141.745 534.677,132.944 					"/>
					<g>
						<polygon fill="#442F27" points="547.15,73.173 547.654,85.431 539.214,78.917 						"/>
						<polygon fill="#543C32" points="547.052,73.114 547.654,85.431 554.948,78.182 						"/>
					</g>
					<path fill="#D7AA8B" d="M547.052,72.604l-8.524,6.284l9.192,6.993l7.855-7.7L547.052,72.604z M547.654,85.218l-8.274-6.293
						l7.675-5.658l7.672,5.021L547.654,85.218z"/>
					<g>
						<polyline fill="none" stroke="#FFFFFF" stroke-width="0.1663" stroke-linecap="round" stroke-miterlimit="10" points="
							536.889,101.887 542.287,105.67 547.235,104.54 						"/>
						<polyline fill="none" stroke="#FFFFFF" stroke-width="0.1663" stroke-linecap="round" stroke-miterlimit="10" points="
							537.214,124.144 546.777,129.131 559.861,122.008 						"/>
						<polyline fill="none" stroke="#FFFFFF" stroke-width="0.1663" stroke-linecap="round" stroke-miterlimit="10" points="
							547.721,90.157 551.375,96.409 559.492,93.284 						"/>
						<polyline fill="none" stroke="#FFFFFF" stroke-width="0.1663" stroke-linecap="round" stroke-miterlimit="10" points="
							555.577,78.182 556.861,107.553 554.141,113.573 554.705,135.732 						"/>
						<polyline fill="none" stroke="#FFFFFF" stroke-width="0.1663" stroke-linecap="round" stroke-miterlimit="10" points="
							542.062,80.676 547.235,76.03 552.938,80.038 						"/>
					</g>
					<g>
						<polygon fill="#681C4A" points="547.729,59.841 538.083,66.95 548.484,74.862 556.388,65.507 						"/>
						<polygon fill="#490F38" points="538.083,66.95 550.104,63.61 548.484,74.862 						"/>
						<polygon fill="#82206B" points="550.104,63.61 556.388,65.507 548.484,74.862 						"/>
						<polygon fill="#3F0C33" points="550.104,63.61 547.729,59.841 538.083,66.95 						"/>
						<polygon fill="#79162A" points="538.083,66.95 548.484,74.862 548.832,76.198 						"/>
						<polygon fill="#ED335B" points="548.484,74.862 556.388,65.507 548.832,76.198 						"/>
					</g>
				</g>
			</g>
		</g>
		<g>
			<polygon fill="#681C4A" points="70.913,60.095 61.269,67.204 71.669,75.116 79.572,65.761 			"/>
			<polygon fill="#490F38" points="61.269,67.204 73.289,63.864 71.669,75.116 			"/>
			<polygon fill="#82206B" points="73.289,63.864 79.572,65.761 71.669,75.116 			"/>
			<polygon fill="#3F0C33" points="73.289,63.864 70.913,60.095 61.269,67.204 			"/>
			<polygon fill="#79162A" points="61.269,67.204 71.669,75.116 72.018,76.452 			"/>
			<polygon fill="#ED335B" points="71.669,75.116 79.572,65.761 72.018,76.452 			"/>
		</g>
	</g>
</g>
</svg>
