<?xml version="1.0" encoding="utf-8"?>
<!-- Generator: Adobe Illustrator 16.0.4, SVG Export Plug-In . SVG Version: 6.00 Build 0)  -->
<!DOCTYPE svg PUBLIC "-//W3C//DTD SVG 1.1//EN" "http://www.w3.org/Graphics/SVG/1.1/DTD/svg11.dtd">
<svg version="1.1" id="Layer_1" xmlns="http://www.w3.org/2000/svg" xmlns:xlink="http://www.w3.org/1999/xlink" x="0px" y="0px"
	 width="64px" height="64px" viewBox="0 0 64 64" enable-background="new 0 0 64 64" xml:space="preserve">
<rect display="none" opacity="0.7" fill="#F1E7D3" width="64" height="64"/>
<polygon opacity="0.5" fill="#CECDCC" points="30.5,3.73 64,30.125 64,65 9.625,65 3.868,60.416 32.939,31.824 4.5,3.73 
	58.468,31.699 "/>
<g>
	<g>
		<path fill="#046370" d="M29.439,4.791c9.322,9.323,18.646,18.646,27.968,27.968c0-0.707,0-1.414,0-2.121
			c-9.322,9.323-18.646,18.645-27.968,27.968c-1.369,1.369,0.752,3.49,2.121,2.121c9.322-9.322,18.646-18.646,27.968-27.968
			c0.578-0.578,0.578-1.543,0-2.121C50.206,21.315,40.883,11.993,31.561,2.67C30.191,1.301,28.07,3.422,29.439,4.791L29.439,4.791z"
			/>
	</g>
</g>
<g>
	<g>
		<path fill="#0C9696" d="M3.439,4.791c9.322,9.323,18.645,18.646,27.968,27.968c0-0.707,0-1.414,0-2.121
			c-9.323,9.323-18.646,18.645-27.968,27.968c-1.369,1.369,0.752,3.49,2.121,2.121c9.323-9.322,18.646-18.646,27.968-27.968
			c0.578-0.578,0.578-1.543,0-2.121C24.206,21.315,14.883,11.993,5.561,2.67C4.191,1.301,2.07,3.422,3.439,4.791L3.439,4.791z"/>
	</g>
</g>
</svg>
