<?xml version="1.0" encoding="utf-8"?>
<!-- Generator: Adobe Illustrator 16.0.4, SVG Export Plug-In . SVG Version: 6.00 Build 0)  -->
<!DOCTYPE svg PUBLIC "-//W3C//DTD SVG 1.1//EN" "http://www.w3.org/Graphics/SVG/1.1/DTD/svg11.dtd">
<svg version="1.1" id="Layer_1" xmlns="http://www.w3.org/2000/svg" xmlns:xlink="http://www.w3.org/1999/xlink" x="0px" y="0px"
	 width="64px" height="64px" viewBox="0 0 64 64" enable-background="new 0 0 64 64" xml:space="preserve">
<rect display="none" opacity="0.7" fill="#F1E7D3" width="64" height="64"/>
<polygon opacity="0.5" fill="#CECDCC" points="33.367,3.73 -0.133,30.125 -0.133,65 54.242,65 60,60.416 30.928,31.824 59.367,3.73 
	5.399,31.699 "/>
<g>
	<g>
		<path fill="#6D0F25" d="M32.307,2.67c-9.323,9.323-18.646,18.646-27.968,27.968c-0.578,0.578-0.578,1.543,0,2.121
			c9.322,9.323,18.645,18.646,27.968,27.968c1.369,1.369,3.49-0.752,2.121-2.121C25.105,49.283,15.783,39.961,6.46,30.638
			c0,0.707,0,1.414,0,2.121c9.323-9.323,18.646-18.646,27.968-27.968C35.797,3.422,33.676,1.301,32.307,2.67L32.307,2.67z"/>
	</g>
</g>
<g>
	<g>
		<path fill="#B62347" d="M58.307,2.67c-9.322,9.323-18.646,18.646-27.968,27.968c-0.578,0.578-0.578,1.543,0,2.121
			c9.322,9.323,18.646,18.646,27.968,27.968c1.369,1.369,3.49-0.752,2.121-2.121c-9.322-9.323-18.646-18.646-27.968-27.968
			c0,0.707,0,1.414,0,2.121c9.322-9.323,18.646-18.646,27.968-27.968C61.797,3.422,59.676,1.301,58.307,2.67L58.307,2.67z"/>
	</g>
</g>
</svg>
