<?xml version="1.0" encoding="utf-8"?>
<!-- Generator: Adobe Illustrator 16.0.4, SVG Export Plug-In . SVG Version: 6.00 Build 0)  -->
<!DOCTYPE svg PUBLIC "-//W3C//DTD SVG 1.1//EN" "http://www.w3.org/Graphics/SVG/1.1/DTD/svg11.dtd">
<svg version="1.1" id="print-svg" xmlns="http://www.w3.org/2000/svg" xmlns:xlink="http://www.w3.org/1999/xlink" x="0px" y="0px"
	 width="1037.438px" height="373.777px" viewBox="0 0 1037.438 373.777" enable-background="new 0 0 1037.438 373.777"
	 xml:space="preserve">
<g>
	<g>
		<g>
			<g>
				<polygon fill="#681C4A" points="410.893,173.144 429.048,170.013 417.751,178.14 				"/>
				<polygon fill="#490F38" points="417.751,178.14 417.751,183.433 410.893,177.618 410.893,173.144 				"/>
				<polygon fill="#601947" points="417.751,178.14 429.048,170.013 417.751,183.433 				"/>
				<polygon fill="#D03147" points="427.567,103.236 451.155,102.328 418.381,114.747 				"/>
				<polygon fill="#D8CBB8" points="411.351,117.411 451.155,102.328 426.32,138.052 404.433,125.01 				"/>
				<polygon fill="#F1E7D3" points="451.155,102.328 458.98,122.628 426.32,138.052 				"/>
				<polygon fill="#D8CBB8" points="451.155,102.328 464.085,113.894 458.98,122.628 				"/>
				<polygon fill="#D8CBB8" points="458.98,122.628 453.651,132.154 426.32,138.052 				"/>
				<polygon fill="#592259" points="453.651,132.154 443.765,138.784 423.712,142.814 426.32,138.052 				"/>
				<polygon fill="#451A44" points="404.433,125.01 426.32,138.052 423.712,142.814 				"/>
				<polygon fill="#004746" points="407.725,128.049 416.341,159.372 423.712,142.814 				"/>
				<polygon fill="#007176" points="423.712,142.814 435.812,140.383 416.341,159.372 				"/>
				<polygon fill="#0C9696" points="430.35,145.71 424.619,164.248 416.341,159.372 				"/>
				<polygon fill="#007176" points="416.341,159.372 424.619,164.248 423.346,172.867 417.751,176.722 				"/>
				<polygon fill="#004746" points="416.341,159.372 413.855,173.208 417.751,176.722 				"/>
				<polygon fill="#8E7361" points="411.351,117.411 426.32,138.052 404.433,125.01 				"/>
				<polygon fill="#9B1B36" points="427.567,103.236 435.812,108.141 418.381,114.947 				"/>
			</g>
			<g>
				<polyline fill="none" stroke="#FFFFFF" stroke-width="0.1505" stroke-linecap="round" stroke-miterlimit="10" points="
					435.812,102.918 441.972,105.808 443.624,113.159 447.499,128.049 443.62,134.317 433.729,140.731 422.944,152.931 
					427.039,156.418 				"/>
				<polyline fill="none" stroke="#FFFFFF" stroke-width="0.1505" stroke-linecap="round" stroke-miterlimit="10" points="
					407.669,126.937 413.396,120.233 445.832,109.986 454.415,110.784 464.085,113.894 				"/>
				<polyline fill="none" stroke="#FFFFFF" stroke-width="0.1505" stroke-linecap="round" stroke-miterlimit="10" points="
					451.155,102.328 417.864,126.391 413.855,130.624 415.001,134.77 419.97,151.21 420.479,155.336 419.14,161.02 420.479,174.841 
									"/>
			</g>
		</g>
		<g>
			<g>
				<polygon fill="#9B1B36" points="465.354,116.631 478.258,126.879 464.403,183.433 				"/>
				<polygon fill="#E43552" points="478.258,126.879 500.367,102.965 480.914,149.272 				"/>
				<polygon fill="#D03147" points="465.354,116.631 472.185,116.631 478.258,126.879 				"/>
				<polygon fill="#F27270" points="472.185,116.631 478.258,126.879 500.367,102.965 				"/>
				<polygon fill="#9B1B36" points="465.354,116.631 500.367,102.965 472.185,116.631 				"/>
				<polygon fill="#8E7361" points="500.367,102.965 504.792,129.915 481.125,148.768 				"/>
				<polygon fill="#D8CBB8" points="504.792,129.915 518.386,131.433 481.125,148.768 				"/>
				<polygon fill="#F1E7D3" points="500.367,102.965 518.386,131.433 504.792,129.915 				"/>
				<polygon fill="#D03147" points="480.914,149.272 478.258,126.879 464.403,183.433 				"/>
				<polygon fill="#D3AA9B" points="480.914,149.272 464.403,183.433 484.901,166.068 512.799,182.58 				"/>
				<polygon fill="#F1E7D3" points="480.914,149.272 513.509,170.338 512.799,182.58 				"/>
				<polygon fill="#8E7361" points="480.914,149.272 484.901,166.068 512.799,182.58 				"/>
			</g>
			<g>
				<polyline fill="none" stroke="#FFFFFF" stroke-width="0.1491" stroke-linecap="round" stroke-miterlimit="10" points="
					475.777,112.563 481.852,111.943 485.108,119.469 486.776,135.316 503.479,121.92 513.447,123.631 				"/>
				<polyline fill="none" stroke="#FFFFFF" stroke-width="0.1491" stroke-linecap="round" stroke-miterlimit="10" points="
					465.005,141.171 472.998,148.353 474.679,162.176 482.703,156.806 495.501,164.51 493.78,157.587 				"/>
			</g>
		</g>
		<g>
			<polygon fill="#0C9696" points="621.967,120.799 609.479,153.532 618.884,183.433 614.034,154.79 			"/>
			<g>
				<polygon fill="#F27270" points="590.163,117.229 585.827,143.122 571.017,120.15 				"/>
				<polygon fill="#D03147" points="603.632,102.463 585.827,143.122 590.163,117.229 				"/>
				<polygon fill="#F1E7D3" points="551.918,164.068 621.967,120.799 570.288,183.433 				"/>
				<polygon fill="#F27270" points="598.694,149.138 618.884,183.433 601.685,166.72 				"/>
				<polygon fill="#D03147" points="587.083,168.667 598.694,149.138 601.685,166.72 				"/>
				<polygon fill="#6D0F25" points="570.531,183.433 598.694,149.138 587.083,168.667 				"/>
				<polygon fill="#84BFB9" points="598.694,149.138 610.331,134.969 621.967,120.799 614.034,154.79 618.884,183.433 
					608.79,166.287 				"/>
				<polygon fill="#046370" points="560.469,115.201 585.827,143.122 551.918,164.068 564.283,133.584 				"/>
				<polygon fill="#997F6A" points="603.632,102.463 621.967,120.799 585.827,143.122 				"/>
				<polygon fill="#6D0F25" points="560.469,115.201 571.339,120.582 585.827,143.122 				"/>
				<polygon fill="#05363D" points="560.469,115.201 585.827,143.122 581.472,145.812 564.283,133.584 				"/>
				<polyline fill="none" stroke="#FCFDFF" stroke-width="0.1777" stroke-linecap="round" stroke-miterlimit="10" points="
					564.283,133.584 581.472,145.812 587.104,162.363 587.083,168.667 				"/>
				<polyline fill="none" stroke="#FCFDFF" stroke-width="0.1777" stroke-linecap="round" stroke-miterlimit="10" points="
					561.282,158.283 569.431,137.247 567.095,122.499 				"/>
				<polyline fill="none" stroke="#FCFDFF" stroke-width="0.1777" stroke-linecap="round" stroke-miterlimit="10" points="
					614.034,154.79 609.479,153.532 598.694,149.138 562.796,175.534 				"/>
			</g>
		</g>
		<g>
			<polygon fill="#84BFB9" points="621.15,117.6 692.276,103.236 643.044,122.929 			"/>
			<polygon fill="#005F65" points="643.044,122.929 665.152,114.085 665.152,137.525 			"/>
			<polygon fill="#F1E7D3" points="665.152,114.085 673.163,117.137 692.276,103.236 			"/>
			<polygon fill="#997F6A" points="673.163,117.137 665.152,137.989 665.152,114.085 			"/>
			<polygon fill="#D8CBB8" points="673.163,117.137 692.276,103.236 666.329,134.933 			"/>
			<polygon fill="#D03147" points="643.044,122.929 664.645,147.617 665.152,137.525 			"/>
			<polygon fill="#F27270" points="665.099,137.525 672.312,170.584 663.027,183.433 			"/>
			<polyline fill="#6D0F25" points="621.15,117.6 646.162,126.387 643.044,122.929 620.879,117.6 			"/>
			<g>
				<polyline fill="none" stroke="#FFFFFF" stroke-width="0.1523" stroke-linecap="round" stroke-miterlimit="10" points="
					643.044,113.179 660.523,115.937 659.378,133.712 				"/>
				<polyline fill="none" stroke="#FFFFFF" stroke-width="0.1523" stroke-linecap="round" stroke-miterlimit="10" points="
					656.715,110.173 682.722,110.187 671.029,128.745 				"/>
			</g>
			<polygon fill="#D03147" points="663.027,183.433 646.996,176.829 663.265,178.1 			"/>
			<polygon fill="#6D0F25" points="650.837,177.129 646.996,176.829 653.102,173.204 			"/>
		</g>
		<g>
			<polygon fill="#997F6A" points="550.418,144.016 547.196,153.209 535.476,155.016 			"/>
			<polygon fill="#F1E7D3" points="547.196,153.209 549.003,171.516 535.018,182.124 535.476,155.016 			"/>
			<polygon fill="#005F65" points="535.737,135.569 524.512,174.483 534.951,182.124 			"/>
			<g>
				<polygon fill="#D8CBB8" points="543.817,118.559 550.418,144.016 535.476,155.016 				"/>
				<polygon fill="#F1E7D3" points="535.961,126.259 543.817,118.559 535.476,155.016 				"/>
				<polygon fill="#05363D" points="526.768,119.266 535.961,126.259 535.018,182.124 522.918,173.323 				"/>
				<g>
					<polygon fill="#442F27" points="535.391,113.55 535.895,125.808 527.454,119.295 					"/>
					<polygon fill="#543C32" points="535.293,113.492 535.895,125.808 543.188,118.559 					"/>
				</g>
				<path fill="#D7AA8B" d="M535.293,112.982l-8.525,6.284l9.193,6.993l7.855-7.7L535.293,112.982z M535.895,125.595l-8.274-6.293
					l7.674-5.658l7.672,5.021L535.895,125.595z"/>
				<g>
					<polyline fill="none" stroke="#FFFFFF" stroke-width="0.1663" stroke-linecap="round" stroke-miterlimit="10" points="
						525.129,142.264 530.527,146.047 535.476,144.918 					"/>
					<polyline fill="none" stroke="#FFFFFF" stroke-width="0.1663" stroke-linecap="round" stroke-miterlimit="10" points="
						525.454,164.521 535.018,169.508 548.102,162.385 					"/>
					<polyline fill="none" stroke="#FFFFFF" stroke-width="0.1663" stroke-linecap="round" stroke-miterlimit="10" points="
						535.961,130.536 539.615,136.788 547.732,133.662 					"/>
					<polyline fill="none" stroke="#FFFFFF" stroke-width="0.1663" stroke-linecap="round" stroke-miterlimit="10" points="
						543.817,118.559 545.102,147.93 542.381,153.952 542.945,176.11 					"/>
					<polyline fill="none" stroke="#FFFFFF" stroke-width="0.1663" stroke-linecap="round" stroke-miterlimit="10" points="
						530.303,121.053 535.476,116.409 541.178,120.417 					"/>
				</g>
				<g>
					<polygon fill="#681C4A" points="535.969,100.218 526.323,107.328 536.725,115.24 544.628,105.884 					"/>
					<polygon fill="#490F38" points="526.323,107.328 538.345,103.989 536.725,115.24 					"/>
					<polygon fill="#82206B" points="538.345,103.989 544.628,105.884 536.725,115.24 					"/>
					<polygon fill="#3F0C33" points="538.345,103.989 535.969,100.218 526.323,107.328 					"/>
					<polygon fill="#79162A" points="526.323,107.328 536.725,115.24 537.072,116.577 					"/>
					<polygon fill="#ED335B" points="536.725,115.24 544.628,105.884 537.072,116.577 					"/>
				</g>
			</g>
		</g>
	</g>
	<g>
		<g>
			<g>
				<polygon fill="#490F38" points="277.647,211.057 286.775,228.42 298.128,233.316 				"/>
				<polygon fill="#D03147" points="277.647,211.057 299.908,223.3 298.128,233.316 				"/>
				<polygon fill="#9B1B36" points="299.908,223.3 322.392,213.506 298.128,233.316 				"/>
				<polygon fill="#005F65" points="322.392,213.506 328.625,225.525 298.128,233.316 				"/>
				<polygon fill="#007176" points="298.128,233.316 328.625,225.525 319.274,246.006 				"/>
				<polygon fill="#F1E7D3" points="328.625,225.525 319.274,246.006 334.413,225.525 322.392,213.506 				"/>
				<polygon fill="#005F65" points="286.775,228.42 298.128,233.316 291.061,264.76 				"/>
				<polygon fill="#0C9696" points="298.128,233.316 310.26,273.941 291.061,264.76 				"/>
				<polygon fill="#005F65" points="298.128,233.316 319.274,246.006 310.26,273.941 				"/>
				<polygon fill="#F1E7D3" points="319.274,246.006 330.962,264.76 339.144,261.086 				"/>
				<polygon fill="#007176" points="319.274,246.006 330.962,264.76 310.26,273.941 				"/>
				<polygon fill="#005F65" points="330.962,264.76 320.611,287.467 310.26,273.941 				"/>
				<polygon fill="#490F38" points="310.26,273.941 302.413,277.949 320.611,287.467 				"/>
				<polygon fill="#D03147" points="291.061,264.76 292.451,271.773 310.26,273.941 				"/>
				<polygon fill="#E43552" points="292.451,271.773 287.888,276.948 310.26,273.941 				"/>
				<polygon fill="#9B1B36" points="287.888,276.948 276.702,291.305 310.26,273.941 				"/>
				<polygon fill="#867E6B" points="339.144,261.086 320.611,287.467 330.962,264.76 				"/>
			</g>
			<g>
				<polyline fill="none" stroke="#FFFFFF" stroke-width="0.1511" stroke-linecap="round" stroke-miterlimit="10" points="
					286.775,220.977 299.075,227.995 311.727,222.214 316.058,228.736 311.188,241.152 315.825,256.691 323.858,253.359 
					331.413,255.219 				"/>
				<polyline fill="none" stroke="#FFFFFF" stroke-width="0.1511" stroke-linecap="round" stroke-miterlimit="10" points="
					276.702,291.305 298.128,275.573 298.396,272.496 297.384,267.783 301.739,245.412 316.678,254.051 323.917,267.885 
					316.905,282.624 310.26,282.052 				"/>
			</g>
		</g>
		<g>
			<g>
				<polygon fill="#9B1B36" points="345.822,224.702 358.69,234.92 344.876,291.305 				"/>
				<polygon fill="#F1E7D3" points="358.69,234.92 380.732,211.078 361.338,257.246 				"/>
				<polygon fill="#005256" points="345.822,224.702 352.635,224.702 358.69,234.92 				"/>
				<polygon fill="#007176" points="352.635,224.702 358.69,234.92 380.732,211.078 				"/>
				<polygon fill="#004746" points="345.822,224.702 380.732,211.078 352.635,224.702 				"/>
				<polygon fill="#D8CBB8" points="380.732,211.078 385.144,237.947 361.548,256.744 				"/>
				<polygon fill="#8E7361" points="385.144,237.947 398.696,239.461 361.548,256.744 				"/>
				<polygon fill="#F1E7D3" points="380.732,211.078 398.696,239.461 385.144,237.947 				"/>
				<polygon fill="#E43552" points="361.338,257.246 358.69,234.92 344.876,291.305 				"/>
				<polygon fill="#F1E7D3" points="361.338,257.246 344.876,291.305 365.312,273.992 393.126,290.454 				"/>
				<polygon fill="#F1E7D3" points="361.338,257.246 393.835,278.25 393.126,290.454 				"/>
				<polygon fill="#997F6A" points="361.338,257.246 365.312,273.992 393.126,290.454 				"/>
			</g>
			<g>
				<polyline fill="none" stroke="#FFFFFF" stroke-width="0.1486" stroke-linecap="round" stroke-miterlimit="10" points="
					356.215,220.646 362.271,220.029 365.519,227.533 367.183,243.332 383.835,229.975 393.772,231.682 				"/>
				<polyline fill="none" stroke="#FFFFFF" stroke-width="0.1486" stroke-linecap="round" stroke-miterlimit="10" points="
					345.476,249.168 353.443,256.33 355.12,270.111 363.12,264.758 375.88,272.438 374.165,265.537 				"/>
			</g>
		</g>
		<g>
			<g>
				<polygon fill="#E43552" points="551.459,225.334 598.02,231.171 574.74,282.548 				"/>
				<polygon fill="#05363D" points="551.459,225.334 562.553,277.002 574.74,282.548 				"/>
				<path fill="#007176" d="M551.459,225.334c0,0,15.18-12.845,15.617-12.845c0.438,0,30.942,18.682,30.942,18.682L551.459,225.334z
					"/>
				<polygon fill="#005F65" points="567.076,212.489 574.74,210.884 606.924,215.408 598.02,231.171 				"/>
				<polygon fill="#E43552" points="606.924,215.408 624,236.426 624,246.497 598.02,231.171 				"/>
				<polygon fill="#F1E7D3" points="598.02,231.171 606.924,244.598 624,246.497 				"/>
				<polygon fill="#997F6A" points="606.924,244.598 624,246.497 574.74,282.548 				"/>
				<polygon fill="#D8CBB8" points="598.02,231.171 606.924,244.598 574.74,282.548 				"/>
				<polygon fill="#005F65" points="615.4,252.79 585.176,291.305 574.74,282.548 				"/>
				<polygon fill="#007176" points="615.4,252.79 611.01,270.141 585.176,291.305 				"/>
			</g>
			<g>
				<polyline fill="none" stroke="#FFFFFF" stroke-width="0.1521" stroke-linecap="round" stroke-miterlimit="10" points="
					558.551,258.359 566.756,262.927 592.188,244.043 598.02,255.096 616.414,252.049 				"/>
				<polyline fill="none" stroke="#FFFFFF" stroke-width="0.1521" stroke-linecap="round" stroke-miterlimit="10" points="
					574.74,282.548 568.873,227.516 578.055,219.116 595.07,213.741 				"/>
				<polyline fill="none" stroke="#FFFFFF" stroke-width="0.1521" stroke-linecap="round" stroke-miterlimit="10" points="
					601.854,277.641 604.887,266.188 598.471,265.182 588.885,265.867 586.002,257.696 551.459,225.334 				"/>
			</g>
		</g>
		<g>
			<g>
				<polygon fill="#F1E7D3" points="783.941,209.98 815.73,227.797 793.023,240.198 				"/>
				<path fill="#D8CBB8" d="M815.73,227.797c0,0-25.15,24.451-24.802,23.928c0.349-0.522,2.095-11.525,2.095-11.525L815.73,227.797z
					"/>
				<polygon fill="#F1E7D3" points="790.93,251.723 812.412,264.518 820.008,287.964 				"/>
				<polygon fill="#997F6A" points="790.93,251.723 797.084,273.294 820.008,287.964 				"/>
				<polygon fill="#005F65" points="797.084,273.294 797.084,280.499 820.008,287.964 				"/>
				<polygon fill="#05363D" points="797.084,273.294 777.764,290.977 797.084,280.499 				"/>
				<polygon fill="#D8CBB8" points="790.93,251.723 770.1,271.459 777.174,291.305 797.01,273.035 				"/>
				<polygon fill="#05363D" points="770.1,271.459 744.207,270.675 777.174,291.305 				"/>
				<polygon fill="#007176" points="744.732,237.49 744.207,270.675 770.1,271.459 768.746,238.45 				"/>
				<polygon fill="#B62347" points="761.674,216.793 744.732,237.49 768.746,238.45 				"/>
				<polygon fill="#D0294E" points="761.674,216.793 783.941,209.98 768.746,238.45 				"/>
				<polygon fill="#997F6A" points="768.746,238.45 793.023,239.764 790.93,251.723 770.1,271.459 				"/>
				<polygon fill="#D8CBB8" points="783.941,209.98 768.746,238.45 793.023,240.198 				"/>
			</g>
			<polygon fill="#D0294E" points="768.746,238.45 790.93,251.723 770.1,271.459 			"/>
			<polygon fill="#F1E7D3" points="790.93,251.723 777.174,291.305 797.01,273.035 			"/>
			<polygon fill="#005F65" points="768.746,238.45 744.207,270.675 770.1,271.459 			"/>
			<g>
				<polyline fill="none" stroke="#FFFFFF" stroke-width="0.1589" stroke-linecap="round" stroke-miterlimit="10" points="
					800.225,219.107 788.221,224.216 775.877,225.089 763.811,223.332 753.008,237.82 757.152,253.675 754.176,270.977 
					777.174,291.305 				"/>
				<polyline fill="none" stroke="#FFFFFF" stroke-width="0.1589" stroke-linecap="round" stroke-miterlimit="10" points="
					790.93,251.723 804.395,233.986 783.941,209.98 				"/>
				<polyline fill="none" stroke="#FFFFFF" stroke-width="0.1589" stroke-linecap="round" stroke-miterlimit="10" points="
					812.412,264.518 806.49,271.117 794.578,264.518 783.037,274.436 778.529,263.475 769.598,259.21 759.52,271.459 
					765.23,283.832 				"/>
				<polyline fill="none" stroke="#FFFFFF" stroke-width="0.1589" stroke-linecap="round" stroke-miterlimit="10" points="
					771.738,213.714 776.615,223.707 781.775,239.217 780.564,245.521 780.629,261.482 785.244,268.081 787.941,281.389 
					787.424,285.609 				"/>
			</g>
		</g>
		<g>
			<polygon fill="#0C9696" points="544.562,228.975 532.137,261.55 541.494,291.305 536.668,262.801 			"/>
			<g>
				<polygon fill="#F27270" points="512.914,225.423 508.596,251.188 493.859,228.33 				"/>
				<polygon fill="#D03147" points="526.316,210.729 508.596,251.188 512.914,225.423 				"/>
				<polygon fill="#F1E7D3" points="474.854,272.034 544.562,228.975 493.135,291.305 				"/>
				<polygon fill="#F27270" points="521.402,257.177 541.494,291.305 524.379,274.674 				"/>
				<polygon fill="#D03147" points="509.848,276.611 521.402,257.177 524.379,274.674 				"/>
				<polygon fill="#6D0F25" points="493.375,291.305 521.402,257.177 509.848,276.611 				"/>
				<polygon fill="#84BFB9" points="521.402,257.177 532.982,243.077 544.562,228.975 536.668,262.801 541.494,291.305 
					531.449,274.242 				"/>
				<polygon fill="#046370" points="483.361,223.404 508.596,251.188 474.854,272.034 487.158,241.697 				"/>
				<polygon fill="#997F6A" points="526.316,210.729 544.562,228.975 508.596,251.188 				"/>
				<polygon fill="#6D0F25" points="483.361,223.404 494.18,228.759 508.596,251.188 				"/>
				<polygon fill="#05363D" points="483.361,223.404 508.596,251.188 504.264,253.867 487.158,241.697 				"/>
				<polyline fill="none" stroke="#FCFDFF" stroke-width="0.1769" stroke-linecap="round" stroke-miterlimit="10" points="
					487.158,241.697 504.264,253.867 509.869,270.337 509.848,276.611 				"/>
				<polyline fill="none" stroke="#FCFDFF" stroke-width="0.1769" stroke-linecap="round" stroke-miterlimit="10" points="
					484.17,266.277 492.281,245.343 489.957,230.666 				"/>
				<polyline fill="none" stroke="#FCFDFF" stroke-width="0.1769" stroke-linecap="round" stroke-miterlimit="10" points="
					536.668,262.801 532.137,261.55 521.402,257.177 485.68,283.443 				"/>
			</g>
		</g>
		<g>
			<polygon fill="#0C9696" points="739.621,229.63 727.324,261.861 736.586,291.305 731.809,263.098 			"/>
			<g>
				<polygon fill="#F27270" points="708.307,226.113 704.033,251.609 689.451,228.99 				"/>
				<polygon fill="#D03147" points="721.566,211.575 704.033,251.609 708.307,226.113 				"/>
				<polygon fill="#F1E7D3" points="670.643,272.234 739.621,229.63 688.732,291.305 				"/>
				<polygon fill="#F27270" points="716.703,257.535 736.586,291.305 719.65,274.848 				"/>
				<polygon fill="#D03147" points="705.27,276.766 716.703,257.535 719.65,274.848 				"/>
				<polygon fill="#6D0F25" points="688.971,291.305 716.703,257.535 705.27,276.766 				"/>
				<polygon fill="#84BFB9" points="716.703,257.535 728.162,243.582 739.621,229.63 731.809,263.098 736.586,291.305 
					726.646,274.42 				"/>
				<polygon fill="#046370" points="679.064,224.115 704.033,251.609 670.643,272.234 682.82,242.217 				"/>
				<polygon fill="#997F6A" points="721.566,211.575 739.621,229.63 704.033,251.609 				"/>
				<polygon fill="#6D0F25" points="679.064,224.115 689.768,229.415 704.033,251.609 				"/>
				<polygon fill="#05363D" points="679.064,224.115 704.033,251.609 699.746,254.26 682.82,242.217 				"/>
				<polyline fill="none" stroke="#FCFDFF" stroke-width="0.175" stroke-linecap="round" stroke-miterlimit="10" points="
					682.82,242.217 699.746,254.26 705.293,270.557 705.27,276.766 				"/>
				<polyline fill="none" stroke="#FCFDFF" stroke-width="0.175" stroke-linecap="round" stroke-miterlimit="10" points="
					679.863,266.54 687.889,245.826 685.59,231.302 				"/>
				<polyline fill="none" stroke="#FCFDFF" stroke-width="0.175" stroke-linecap="round" stroke-miterlimit="10" points="
					731.809,263.098 727.324,261.861 716.703,257.535 681.355,283.527 				"/>
			</g>
		</g>
		<g>
			<polygon fill="#84BFB9" points="457.455,229.881 467.553,281.266 453.521,244.188 			"/>
			<polygon fill="#0C9696" points="453.521,244.188 467.553,281.266 458.797,291.305 			"/>
			<polygon fill="#D8CBB8" points="457.455,229.881 436.334,211.489 458.797,225.006 			"/>
			<polygon fill="#0C9696" points="458.797,225.006 467.553,281.266 457.455,229.881 			"/>
			<polygon fill="#681C4A" points="457.967,283.875 467.553,281.266 458.797,291.305 			"/>
			<g>
				<polygon fill="#D03147" points="436.334,211.489 426.87,241.613 437.812,233.374 				"/>
				<polygon fill="#F27270" points="436.334,211.489 453.521,244.188 437.812,233.374 				"/>
				<polygon fill="#F1E7D3" points="436.334,211.489 458.797,225.006 453.521,244.188 				"/>
				<polygon fill="#046370" points="453.521,244.188 442.449,281.266 458.797,291.305 				"/>
				<polygon fill="#F27270" points="426.87,241.613 421.336,222.816 436.334,211.489 				"/>
				<polygon fill="#6D0F25" points="421.336,222.816 400.35,280.234 426.87,241.613 				"/>
				<polygon fill="#046370" points="400.35,280.234 411.423,289.246 427.771,280.234 412.339,262.777 				"/>
				<polygon fill="#0C9696" points="427.771,280.234 426.87,241.613 412.339,262.777 				"/>
				<path fill="none" stroke="#FFFFFF" stroke-width="0.1517" stroke-linecap="round" stroke-miterlimit="10" d="M442.449,271.352"
					/>
				<polygon fill="#F1E7D3" points="434.02,255.574 427.077,250.464 452.904,248.66 441.836,254.166 				"/>
				<polygon fill="#997F6A" points="434.02,255.574 427.077,250.464 427.077,256.548 427.365,262.777 				"/>
				<polygon fill="#D8CBB8" points="427.365,262.777 434.02,255.574 441.836,254.166 449.023,259.249 				"/>
				<polygon fill="#997F6A" points="441.836,254.166 452.904,248.66 449.023,259.249 449.023,259.249 				"/>
				<polygon fill="#0B333A" points="426.87,241.613 424.941,249.079 423.009,256.548 427.365,262.777 427.077,250.464 
					426.975,246.037 				"/>
				<polygon fill="#0B333A" points="423.009,256.548 427.771,280.234 427.365,262.777 				"/>
				<polygon fill="#0D171F" points="453.521,244.188 452.904,248.66 452.17,248.714 				"/>
				<polygon fill="#0B333A" points="453.521,254.839 447.984,268.053 442.449,281.266 449.162,258.872 452.904,248.66 
					453.213,251.751 				"/>
				<polygon fill="#681C4A" points="427.771,280.234 408.812,282.327 411.423,289.246 				"/>
				<polygon fill="#490F38" points="408.812,282.327 400.35,280.234 411.423,289.246 				"/>
				<polygon fill="#490F38" points="442.449,281.266 457.967,283.875 458.797,291.305 				"/>
				<polyline fill="none" stroke="#FFFFFF" stroke-width="0.1517" stroke-linecap="round" stroke-miterlimit="10" points="
					415.11,239.85 418.388,253.969 423.009,256.548 427.414,263.723 				"/>
				<polyline fill="none" stroke="#FFFFFF" stroke-width="0.1517" stroke-linecap="round" stroke-miterlimit="10" points="
					447.361,264.814 447.842,268.391 456.604,271.709 462.504,267.927 464.076,263.574 464.18,259.602 				"/>
				<polygon fill="#05363D" points="412.339,262.777 408.812,282.327 400.35,280.234 				"/>
			</g>
		</g>
		<g>
			<polygon fill="#997F6A" points="660.746,253.309 657.524,262.502 645.804,264.309 			"/>
			<polygon fill="#F1E7D3" points="657.524,262.502 659.331,280.809 645.346,291.416 645.804,264.309 			"/>
			<polygon fill="#005F65" points="646.065,244.861 634.84,283.775 645.279,291.416 			"/>
			<g>
				<polygon fill="#D8CBB8" points="654.146,227.852 660.746,253.309 645.804,264.309 				"/>
				<polygon fill="#F1E7D3" points="646.289,235.552 654.146,227.852 645.804,264.309 				"/>
				<polygon fill="#05363D" points="637.096,228.559 646.289,235.552 645.346,291.416 633.246,282.615 				"/>
				<g>
					<polygon fill="#442F27" points="645.719,222.843 646.223,235.101 637.782,228.588 					"/>
					<polygon fill="#543C32" points="645.621,222.784 646.223,235.101 653.517,227.852 					"/>
				</g>
				<path fill="#D7AA8B" d="M645.621,222.274l-8.525,6.284l9.193,6.993l7.855-7.7L645.621,222.274z M646.223,234.888l-8.274-6.293
					l7.674-5.658l7.672,5.021L646.223,234.888z"/>
				<g>
					<polyline fill="none" stroke="#FFFFFF" stroke-width="0.1663" stroke-linecap="round" stroke-miterlimit="10" points="
						635.457,251.557 640.855,255.34 645.804,254.211 					"/>
					<polyline fill="none" stroke="#FFFFFF" stroke-width="0.1663" stroke-linecap="round" stroke-miterlimit="10" points="
						635.782,273.813 645.346,278.801 658.43,271.678 					"/>
					<polyline fill="none" stroke="#FFFFFF" stroke-width="0.1663" stroke-linecap="round" stroke-miterlimit="10" points="
						646.289,239.828 649.943,246.08 658.061,242.954 					"/>
					<polyline fill="none" stroke="#FFFFFF" stroke-width="0.1663" stroke-linecap="round" stroke-miterlimit="10" points="
						654.146,227.852 655.43,257.223 652.709,263.244 653.273,285.402 					"/>
					<polyline fill="none" stroke="#FFFFFF" stroke-width="0.1663" stroke-linecap="round" stroke-miterlimit="10" points="
						640.631,230.346 645.804,225.701 651.506,229.709 					"/>
				</g>
				<g>
					<polygon fill="#681C4A" points="646.297,209.511 636.651,216.62 647.053,224.532 654.956,215.177 					"/>
					<polygon fill="#490F38" points="636.651,216.62 648.673,213.281 647.053,224.532 					"/>
					<polygon fill="#82206B" points="648.673,213.281 654.956,215.177 647.053,224.532 					"/>
					<polygon fill="#3F0C33" points="648.673,213.281 646.297,209.511 636.651,216.62 					"/>
					<polygon fill="#79162A" points="636.651,216.62 647.053,224.532 647.4,225.869 					"/>
					<polygon fill="#ED335B" points="647.053,224.532 654.956,215.177 647.4,225.869 					"/>
				</g>
			</g>
		</g>
	</g>
</g>
</svg>
