<?xml version="1.0" encoding="utf-8"?>
<!-- Generator: Adobe Illustrator 16.0.4, SVG Export Plug-In . SVG Version: 6.00 Build 0)  -->
<!DOCTYPE svg PUBLIC "-//W3C//DTD SVG 1.1//EN" "http://www.w3.org/Graphics/SVG/1.1/DTD/svg11.dtd">
<svg version="1.1" id="Layer_1" xmlns="http://www.w3.org/2000/svg" xmlns:xlink="http://www.w3.org/1999/xlink" x="0px" y="0px"
	 width="53.75px" height="50.25px" viewBox="0 0 53.75 50.25" enable-background="new 0 0 53.75 50.25" xml:space="preserve">
<rect display="none" fill="#FFFFFF" width="53.75" height="50.407"/>
<rect display="none" fill="#F1E7D3" width="53.75" height="50.25"/>
<rect x="-57" y="-63.667" display="none" width="200" height="200"/>
<g display="none">
	<polygon display="inline" fill="#26DBC9" points="41.93,4.864 0,4.864 20.963,41.177 	"/>
</g>
<polygon display="none" fill="#FFFFFF" points="71.034,62.467 62.971,62.467 67.096,69.322 "/>
<polygon display="none" fill="#FFFFFF" points="44.626,93.055 53.456,93.055 66.59,70.197 62.203,62.904 "/>
<polygon fill="#09012A" points="43.441,76.744 52.271,76.744 29.387,117.232 20.556,117.232 "/>
<g>
	<g>
		<polygon fill="none" stroke="#F1E7D3" stroke-miterlimit="10" points="70.555,87.055 82.125,106.98 93.6,86.997 		"/>
	</g>
	<polygon fill="#F1E7D3" points="61.723,78.036 79.659,108.928 77.945,109.923 59.436,78.042 	"/>
	<polygon fill="#F1E7D3" points="87.334,60.807 100.532,83.535 98.232,83.523 85.62,61.801 	"/>
	<polygon fill="#F1E7D3" points="96.921,78.018 99.996,83.314 62.982,83.42 59.908,78.123 	"/>
	<polygon fill="#F27270" points="85.062,87.18 89.407,94.325 93.6,86.997 	"/>
</g>
<text transform="matrix(1 0 0 1 50.624 193.75)" display="none" enable-background="new    " font-family="'MyriadPro-Regular'" font-size="12">F27270</text>
<rect display="none" fill="none" stroke="#F1E7D3" stroke-width="0.9" stroke-miterlimit="10" width="53.75" height="50.25"/>
<rect x="108.875" fill="#F1E7D3" width="9.167" height="50.042"/>
<rect x="120.625" fill="none" stroke="#F1E7D3" stroke-miterlimit="10" width="9.167" height="50.042"/>
<polygon fill="#F1E7D3" points="108.874,50.407 118.042,50.407 89.148,0.365 79.982,0.365 "/>
<polygon fill="#F1E7D3" points="149.516,50.407 158.684,50.407 129.791,0.365 120.625,0.365 "/>
<polygon fill="#F1E7D3" points="-25.535,-41.061 -38.438,-18.135 -45.083,-18.135 -31.792,-41.156 "/>
<polygon fill="none" stroke="#F1E7D3" stroke-width="0.855" stroke-miterlimit="10" points="-51.729,-6.625 -31.792,-6.625 
	-18.5,-30.096 -28.436,-46.968 "/>
<polygon fill="none" stroke="#F1E7D3" stroke-width="0.855" stroke-miterlimit="10" points="-58.375,-52.667 -71.667,-29.646 
	-58.375,-6.625 -31.792,-52.667 "/>
<polygon fill="#F27270" points="-28.798,-46.9 -32.104,-41.173 -25.549,-41.156 "/>
<g>
	<polygon fill="none" stroke="#6EC9C8" stroke-width="0.2502" points="-37.689,69.645 -40.176,82.082 -58.363,82.082 	"/>
	<polygon fill="none" stroke="#6EC9C8" stroke-width="0.2502" points="-45.924,61.924 -37.689,69.645 -58.363,82.082 	"/>
	<polygon fill="none" stroke="#6EC9C8" stroke-width="0.2502" points="-23.021,64.197 -28.812,69.645 -21.564,76.25 -16.073,69.343 
			"/>
	<polygon fill="none" stroke="#6EC9C8" stroke-width="0.2502" points="-16.073,69.343 -12.255,87.445 -21.564,76.25 	"/>
	<polygon fill="none" stroke="#6EC9C8" stroke-width="0.2502" points="-21.564,76.25 -31.893,88.33 -20.104,97.223 -12.255,87.445 	
		"/>
	<polygon fill="none" stroke="#6EC9C8" stroke-width="0.2502" points="-58.363,82.082 -30.399,102.027 -40.176,82.082 	"/>
	<polygon fill="none" stroke="#6EC9C8" stroke-width="0.2502" points="-40.176,82.082 -20.104,97.223 -30.399,102.027 	"/>
	<polygon fill="none" stroke="#6EC9C8" stroke-width="0.2502" points="-58.363,82.082 -30.399,102.027 -20.104,97.223 
		-31.04,109.359 	"/>
	<polygon fill="none" stroke="#6EC9C8" stroke-width="0.2502" points="-28.812,69.645 -26.163,81.605 -21.564,76.25 	"/>
	<polygon fill="none" stroke="#6EC9C8" stroke-width="0.2502" points="-30.399,102.027 -20.419,97.367 -31.04,109.359 	"/>
</g>
<g>
	<polyline fill="none" stroke="#6EC9C8" stroke-width="0.0751" points="-57.953,82.303 -30.619,104.775 -20.694,97.406 	"/>
	<g>
		<line fill="none" stroke="#6EC9C8" stroke-width="0.0751" x1="-57.953" y1="82.111" x2="-20.51" y2="97.195"/>
		<polyline fill="none" stroke="#6EC9C8" stroke-width="0.0751" points="-40.078,82.111 -46.758,75.411 -45.924,61.924 		"/>
		<polyline fill="none" stroke="#6EC9C8" stroke-width="0.0751" points="-26.767,78.988 -21.638,76.354 -13.962,80.25 		"/>
		<polyline fill="none" stroke="#6EC9C8" stroke-width="0.0751" points="-25.751,66.975 -18.425,72.312 -16.806,82.166 
			-25.911,92.742 -36.537,97.385 -36.277,103.754 		"/>
		<polyline fill="none" stroke="#6EC9C8" stroke-width="0.0751" points="-19.682,66.975 -25.215,73.096 -24.238,79.383 		"/>
		<polyline fill="none" stroke="#6EC9C8" stroke-width="0.0751" points="-47.753,82.111 -24.396,99.008 -26.318,103.754 		"/>
	</g>
</g>
<circle fill="none" cx="53.751" cy="-31.638" r="25.015"/>
<path display="none" fill="none" stroke="#F1E7D3" stroke-miterlimit="10" d="M14.088,3.747c0,0,24.255,42.006,25.406,43.813"/>
<line display="none" fill="none" stroke="#F1E7D3" stroke-miterlimit="10" x1="39.626" y1="3.691" x2="14.275" y2="47.598"/>
<line display="none" fill="none" stroke="#F1E7D3" stroke-miterlimit="10" x1="1.439" y1="25.652" x2="52.157" y2="25.895"/>
<g>
	<path fill="#2A1C5B" stroke="#FFFFFF" stroke-miterlimit="10" d="M44.996-25.734"/>
	<path stroke="#FFFFFF" stroke-miterlimit="10" d="M52.619-32.335"/>
	<g>
		<polygon points="57.748,-63.483 70.57,-41.281 64.178,-52.354 		"/>
		<g>
			<path fill="#FFFFFF" d="M57.316-63.23c4.272,7.401,8.549,14.801,12.822,22.202c0.319,0.559,1.188,0.056,0.86-0.504
				c-4.271-7.402-8.547-14.802-12.819-22.203C57.857-64.293,56.994-63.79,57.316-63.23c4.272,7.4,8.549,14.801,12.822,22.202
				c0.286-0.168,0.573-0.336,0.86-0.504c-4.271-7.401-8.547-14.802-12.819-22.203C57.857-64.293,56.994-63.79,57.316-63.23z"/>
		</g>
	</g>
	<polygon stroke="#FFFFFF" stroke-miterlimit="10" points="57.811,-41.237 70.57,-41.281 64.178,-52.354 	"/>
	<g>
		<polygon fill="#F1E7D3" points="32.211,-63.428 19.423,-41.281 38.604,-52.354 		"/>
		<g>
			<path fill="#09012A" d="M31.779-63.68c-4.264,7.382-8.525,14.765-12.788,22.147c-0.251,0.435,0.249,0.936,0.684,0.684
				c6.394-3.691,12.787-7.382,19.181-11.074c0.237-0.137,0.315-0.449,0.182-0.684c-2.133-3.691-4.264-7.382-6.395-11.073
				c-0.322-0.558-1.188-0.055-0.863,0.505c2.133,3.691,4.264,7.382,6.395,11.073c0.062-0.228,0.12-0.456,0.182-0.684
				c-6.396,3.691-12.789,7.382-19.183,11.074c0.228,0.228,0.456,0.456,0.684,0.684c4.263-7.382,8.525-14.764,12.79-22.146
				C32.965-63.735,32.102-64.238,31.779-63.68z"/>
		</g>
	</g>
	<g>
		<polygon fill="#D8CBB8" points="38.604,-52.354 32.211,-41.281 19.423,-41.281 		"/>
		<g>
			<path fill="#09012A" d="M38.172-52.607c-2.127,3.684-4.254,7.368-6.381,11.052c0.189-0.327,0.611-0.226,0.043-0.226
				c-0.45,0-0.9,0-1.352,0c-1.477,0-2.947,0-4.419,0c-2.213,0-4.427,0-6.64,0c0.084,0.312,0.168,0.621,0.252,0.932
				c6.394-3.691,12.787-7.382,19.181-11.074c0.561-0.322,0.058-1.187-0.504-0.863c-6.395,3.691-12.788,7.382-19.182,11.074
				c-0.432,0.249-0.244,0.932,0.252,0.932c2.213,0,4.426,0,6.64,0c1.472,0,2.946,0,4.418,0c0.504,0,1.51,0.208,1.979-0.068
				c0.4-0.235,0.661-1.014,0.876-1.386c0.71-1.231,1.421-2.462,2.132-3.693c1.188-2.058,2.379-4.116,3.564-6.174
				C39.359-52.662,38.494-53.165,38.172-52.607z"/>
		</g>
	</g>
	<g>
		<polygon fill="#D8CBB8" points="45.023,-25.734 57.783,-30.118 45.172,-18.83 		"/>
		<g>
			<path fill="#09012A" d="M45.156-25.251c4.254-1.462,8.508-2.923,12.76-4.384c-0.162-0.279-0.324-0.558-0.486-0.836
				c-4.203,3.763-8.406,7.525-12.611,11.288c0.285,0.118,0.57,0.235,0.854,0.354c-0.049-2.302-0.1-4.603-0.147-6.904
				c-0.014-0.644-1.014-0.646-1,0c0.052,2.302,0.102,4.603,0.147,6.904c0.011,0.45,0.531,0.643,0.854,0.354
				c4.205-3.763,8.408-7.525,12.611-11.288c0.366-0.329-0.019-0.997-0.486-0.836c-4.254,1.462-8.506,2.923-12.76,4.384
				C44.284-26.007,44.545-25.042,45.156-25.251z"/>
		</g>
	</g>
	<polyline fill="#F1E7D3" stroke="#09012A" stroke-miterlimit="10" points="57.783,-30.118 70.57,-41.281 64.178,-52.354 
		52.619,-32.335 	"/>
	<g>
		<polygon fill="#D8CBB8" points="54.453,-57.66 51.391,-52.354 57.713,-41.404 64.178,-52.354 		"/>
		<g>
			<path fill="#09012A" d="M54.021-57.913c-1.021,1.769-2.041,3.537-3.062,5.306c-0.09,0.156-0.09,0.349,0,0.505
				c2.107,3.65,4.215,7.3,6.322,10.95c0.189,0.327,0.674,0.322,0.863,0c2.151-3.65,4.311-7.3,6.465-10.95
				c0.135-0.229,0.059-0.554-0.18-0.684c-3.242-1.769-6.482-3.537-9.728-5.306c-0.562-0.309-1.07,0.555-0.504,0.863
				c3.239,1.769,6.479,3.537,9.725,5.306c-0.062-0.228-0.118-0.456-0.18-0.684c-2.154,3.65-4.312,7.301-6.468,10.951
				c0.289,0,0.576,0,0.863,0c-1.746-3.025-3.492-6.05-5.24-9.075c-0.319-0.561-0.646-1.121-0.971-1.682
				c-0.209-0.361,0.068,0-0.088,0.269c0.168-0.289,0.334-0.578,0.5-0.867c0.848-1.465,1.693-2.931,2.539-4.396
				C55.209-57.967,54.344-58.471,54.021-57.913z"/>
		</g>
	</g>
	<g>
		<polygon fill="#F1E7D3" points="54.453,-57.66 57.748,-63.483 64.178,-52.354 		"/>
		<g>
			<path fill="#09012A" d="M54.885-57.408c1.1-1.941,2.197-3.882,3.295-5.823c-0.287,0-0.574,0-0.863,0
				c2.146,3.709,4.287,7.419,6.433,11.128c0.229-0.228,0.455-0.456,0.687-0.684c-3.242-1.769-6.482-3.537-9.728-5.306
				c-0.562-0.309-1.067,0.555-0.504,0.863c3.239,1.769,6.479,3.537,9.726,5.306c0.438,0.238,0.938-0.241,0.686-0.684
				c-2.145-3.709-4.287-7.419-6.43-11.128c-0.188-0.322-0.681-0.327-0.863,0c-1.098,1.941-2.195,3.882-3.295,5.823
				C53.703-57.351,54.568-56.847,54.885-57.408z"/>
		</g>
	</g>
	<g>
		<polygon fill="#F1E7D3" points="32.211,-41.281 57.598,-30.118 45.023,-25.734 19.423,-41.281 		"/>
		<g>
			<path fill="#09012A" d="M31.958-40.849c8.462,3.721,16.925,7.442,25.388,11.163c0.039-0.305,0.078-0.609,0.119-0.914
				c-3.756,1.31-7.512,2.619-11.268,3.928c-0.318,0.111-0.637,0.223-0.955,0.334c-0.443,0.154-0.281-0.019,0.023,0.167
				c-0.234-0.144-0.474-0.286-0.707-0.43c-1.371-0.832-2.74-1.665-4.111-2.497c-6.924-4.205-13.848-8.409-20.771-12.614
				c-0.084,0.311-0.168,0.621-0.252,0.932c4.262,0,8.525,0,12.788,0c0.646,0,0.646-1,0-1c-4.263,0-8.525,0-12.788,0
				c-0.503,0-0.675,0.675-0.252,0.932c7.037,4.273,14.073,8.547,21.11,12.82c1.557,0.945,3.753,3.168,5.639,2.511
				c3.938-1.372,7.873-2.745,11.812-4.117c0.36-0.127,0.553-0.724,0.119-0.914c-8.463-3.721-16.925-7.442-25.388-11.163
				C31.879-41.97,31.369-41.108,31.958-40.849z"/>
		</g>
	</g>
	<polygon fill="#D8CBB8" stroke="#09012A" stroke-miterlimit="10" points="19.423,-41.281 44.996,-19.134 44.996,-25.734 	"/>
</g>
<rect x="167.637" y="83.855" fill="#F27270" width="8.771" height="9.658"/>
<polygon fill="#F1E7D3" points="176.406,98.914 145.17,131.583 145.17,131.583 136.4,131.583 136.4,83.855 145.17,83.855 
	145.061,120.777 167.637,98.914 "/>
<g>
	<g>
		<g>
			<g>
				<path fill="#09012A" d="M-186.609-62.315c7.282,13.876,14.563,27.752,21.844,41.628c0.278,0.529,1.125,0.529,1.403,0
					c7.122-13.571,14.243-27.142,21.364-40.712c0.486-0.927-0.916-1.749-1.402-0.82c-7.122,13.571-14.243,27.141-21.365,40.712
					c0.468,0,0.936,0,1.403,0c-7.282-13.876-14.563-27.752-21.844-41.628C-185.693-64.064-187.096-63.242-186.609-62.315
					L-186.609-62.315z"/>
			</g>
		</g>
		<g>
			<g>
				<path fill="#09012A" d="M-186.609-71.122c7.282,13.875,14.563,27.751,21.844,41.627c0.278,0.529,1.125,0.529,1.403,0
					c7.122-13.57,14.243-27.141,21.364-40.711c0.486-0.927-0.916-1.749-1.402-0.82c-7.122,13.571-14.243,27.141-21.365,40.711
					c0.468,0,0.936,0,1.403,0c-7.282-13.876-14.563-27.751-21.844-41.627C-185.693-72.87-187.096-72.048-186.609-71.122
					L-186.609-71.122z"/>
			</g>
		</g>
		<g>
			<g>
				<path fill="#09012A" d="M-186.609-81.229c7.282,13.876,14.563,27.753,21.844,41.63c0.278,0.529,1.125,0.529,1.403,0
					c7.122-13.572,14.243-27.144,21.364-40.715c0.486-0.927-0.916-1.749-1.402-0.82c-7.122,13.572-14.243,27.144-21.365,40.715
					c0.468,0,0.936,0,1.403,0c-7.282-13.876-14.563-27.753-21.844-41.63C-185.693-82.978-187.096-82.156-186.609-81.229
					L-186.609-81.229z"/>
			</g>
		</g>
		<g>
			<g>
				<path fill="#09012A" d="M-186.609-90.944c7.282,13.876,14.563,27.752,21.844,41.629c0.278,0.529,1.125,0.529,1.403,0
					c7.122-13.571,14.243-27.143,21.364-40.714c0.486-0.927-0.916-1.749-1.402-0.82c-7.122,13.571-14.243,27.143-21.365,40.714
					c0.468,0,0.936,0,1.403,0c-7.282-13.876-14.563-27.752-21.844-41.629C-185.693-92.692-187.096-91.871-186.609-90.944
					L-186.609-90.944z"/>
			</g>
		</g>
		<g>
			<g>
				<path fill="#09012A" d="M-186.609-100.547c7.282,13.876,14.563,27.753,21.844,41.629c0.278,0.529,1.125,0.529,1.403,0
					c7.122-13.571,14.243-27.143,21.364-40.714c0.486-0.927-0.916-1.749-1.402-0.82c-7.122,13.572-14.243,27.143-21.365,40.714
					c0.468,0,0.936,0,1.403,0c-7.282-13.876-14.563-27.753-21.844-41.629C-185.693-102.296-187.096-101.474-186.609-100.547
					L-186.609-100.547z"/>
			</g>
		</g>
		<g>
			<g>
				<path fill="#09012A" d="M-187.689-55.649c7.646,14.57,15.291,29.14,22.937,43.71c0.278,0.529,1.125,0.529,1.403,0
					c7.477-14.25,14.953-28.5,22.43-42.75c0.486-0.927-0.916-1.749-1.402-0.82c-7.478,14.25-14.954,28.5-22.431,42.75
					c0.468,0,0.936,0,1.403,0c-7.646-14.57-15.291-29.14-22.937-43.71C-186.773-57.398-188.176-56.576-187.689-55.649
					L-187.689-55.649z"/>
			</g>
		</g>
	</g>
	<rect x="-185.508" y="-71.534" fill="none" width="42.667" height="44.03"/>
</g>
<polygon fill="none" points="190.477,-83.549 136.4,-83.549 163.439,-33.507 "/>
<polygon fill="#F27270" points="27.5,9.619 20.967,20.493 14.433,9.619 1.365,9.619 20.967,43.57 34.033,43.57 53.637,9.619 "/>
<line fill="none" stroke="#09012A" stroke-miterlimit="10" x1="44.825" y1="3.422" x2="19.807" y2="46.828"/>
<g>
	<polyline fill="none" stroke="#09012A" stroke-miterlimit="10" points="11.688,7.696 20.958,23.571 30,8.571 	"/>
	<polyline fill="none" stroke="#09012A" stroke-miterlimit="10" points="8.246,7.276 20.958,29.066 33.479,7.922 	"/>
	<polyline fill="none" stroke="#09012A" stroke-miterlimit="10" points="4.806,6.857 20.958,34.564 36.959,7.273 	"/>
	<polyline fill="none" stroke="#09012A" stroke-miterlimit="10" points="1.365,6.438 20.958,40.062 40.438,6.625 	"/>
</g>
<polygon display="none" fill="#BBF9F6" points="44.5,9.619 53.637,9.619 49.238,17.237 "/>
<line fill="none" stroke="#09012A" stroke-miterlimit="10" x1="42.996" y1="8.288" x2="50.454" y2="20.413"/>
<line fill="none" stroke="#09012A" stroke-miterlimit="10" x1="41.466" y1="9.817" x2="48.924" y2="21.942"/>
</svg>
