<?xml version="1.0" encoding="utf-8"?>
<!-- Generator: Adobe Illustrator 16.0.4, SVG Export Plug-In . SVG Version: 6.00 Build 0)  -->
<!DOCTYPE svg PUBLIC "-//W3C//DTD SVG 1.1//EN" "http://www.w3.org/Graphics/SVG/1.1/DTD/svg11.dtd">
<svg version="1.1" id="Layer_1" xmlns="http://www.w3.org/2000/svg" xmlns:xlink="http://www.w3.org/1999/xlink" x="0px" y="0px"
	 width="150px" height="276px" viewBox="0 0 150 276" enable-background="new 0 0 150 276" xml:space="preserve">
<g>
	<rect x="18.834" y="38.483" fill="#262D38" width="113.706" height="201.554"/>
	<g opacity="0.7">
		<path opacity="0.7" fill="none" stroke="#FFFFFF" stroke-width="2" stroke-miterlimit="10" d="M131.48,13.27H19.891
			c-5.049,0-9.18,4.131-9.18,9.182v237.634c0,5.051,4.131,9.182,9.18,9.182H131.48c5.051,0,9.185-4.131,9.185-9.182V22.451
			C140.665,17.401,136.531,13.27,131.48,13.27z M132.54,240.037H18.834V38.483H132.54V240.037L132.54,240.037z"/>
		<path opacity="0.7" fill="none" stroke="#FFFFFF" stroke-width="2" d="M64.629,26.652c0,1.274-1.029,2.309-2.304,2.309
			c-1.27,0-2.308-1.035-2.308-2.309c0-1.273,1.038-2.31,2.308-2.31C63.6,24.343,64.629,25.378,64.629,26.652z"/>
		<g opacity="0.7">
			<path fill="none" stroke="#FFFFFF" stroke-width="2" stroke-miterlimit="10" d="M91.354,27.335c0,0.617-0.504,1.122-1.121,1.122
				h-19.56c-0.618,0-1.122-0.506-1.122-1.122v-1.362c0-0.617,0.504-1.122,1.122-1.122h19.56c0.617,0,1.121,0.505,1.121,1.122V27.335
				L91.354,27.335z"/>
		</g>
		<path opacity="0.7" fill="none" stroke="#FFFFFF" stroke-width="2" stroke-miterlimit="10" d="M83.508,254.827
			c0,4.317-3.503,7.819-7.822,7.819c-4.321,0-7.818-3.502-7.818-7.819c0-4.321,3.497-7.825,7.818-7.825
			C80.005,247.002,83.508,250.506,83.508,254.827z"/>
	</g>
	<path opacity="0.1" fill="#FFFFFF" enable-background="new    " d="M19.891,13.27c-5.049,0-9.18,4.131-9.18,9.182v237.634
		c0,5.051,4.131,9.182,9.18,9.182h8.153L124.859,13.27H19.891z"/>
	<g>
		<defs>
			<rect id="SVGID_1_" x="18.834" y="38.483" width="113.706" height="201.554"/>
		</defs>
		<clipPath id="SVGID_2_">
			<use xlink:href="#SVGID_1_"  overflow="visible"/>
		</clipPath>
		<g transform="matrix(1 0 0 1 9.536743e-07 0)" display="none" clip-path="url(#SVGID_2_)" enable-background="new    ">
			
				<image display="inline" overflow="visible" width="659" height="1147" xlink:href="5FD705E8920E8F38.jpg"  transform="matrix(0.1827 0 0 0.1827 15.4727 38.4829)">
			</image>
		</g>
		<g transform="matrix(1 0 0 1 0 0)" display="none" clip-path="url(#SVGID_2_)">
			
				<image display="inline" overflow="visible" width="640" height="1136" xlink:href="5FD705E8920E8F39.jpg"  transform="matrix(0.1802 0 0 0.1802 18.021 38.9097)">
			</image>
		</g>
		<g clip-path="url(#SVGID_2_)">
			
				<image overflow="visible" width="640" height="1136" xlink:href="images/greenpizz/photo3.png"  transform="matrix(0.1774 0 0 0.1774 18.834 38.4829)">
			</image>
		</g>
	</g>
</g>
</svg>
